<?xml version="1.0" encoding="UTF-8"?>
<svg width="14px" height="8px" viewBox="0 0 14 8" version="1.1" xmlns="http://www.w3.org/2000/svg" xmlns:xlink="http://www.w3.org/1999/xlink">
    <!-- Generator: Sketch 49.3 (51167) - http://www.bohemiancoding.com/sketch -->
    <title>arrow</title>
    <desc>Created with Sketch.</desc>
    <g id="Symbols" stroke="none" stroke-width="1" fill="none">
        <g id="icons/arrow" transform="translate(-1.000000, -4.000000)">
            <mask id="mask-2" fill="white">
                <path d="M13.2928932,4.29289322 C13.6834175,3.90236893 14.3165825,3.90236893 14.7071068,4.29289322 C15.0976311,4.68341751 15.0976311,5.31658249 14.7071068,5.70710678 L8.70710678,11.7071068 C8.31658249,12.0976311 7.68341751,12.0976311 7.29289322,11.7071068 L1.29289322,5.70710678 C0.902368927,5.31658249 0.902368927,4.68341751 1.29289322,4.29289322 C1.68341751,3.90236893 2.31658249,3.90236893 2.70710678,4.29289322 L8,9.58578644 L13.2928932,4.29289322 Z"></path>
            </mask>
            <path d="M13.2928932,4.29289322 C13.6834175,3.90236893 14.3165825,3.90236893 14.7071068,4.29289322 C15.0976311,4.68341751 15.0976311,5.31658249 14.7071068,5.70710678 L8.70710678,11.7071068 C8.31658249,12.0976311 7.68341751,12.0976311 7.29289322,11.7071068 L1.29289322,5.70710678 C0.902368927,5.31658249 0.902368927,4.68341751 1.29289322,4.29289322 C1.68341751,3.90236893 2.31658249,3.90236893 2.70710678,4.29289322 L8,9.58578644 L13.2928932,4.29289322 Z" fill="#FF5719"></path>
        </g>
    </g>
</svg>
