<?xml version="1.0" encoding="UTF-8"?>
<svg width="11px" height="8px" viewBox="0 0 11 8" version="1.1" xmlns="http://www.w3.org/2000/svg" xmlns:xlink="http://www.w3.org/1999/xlink">
    <!-- Generator: Sketch 49.3 (51167) - http://www.bohemiancoding.com/sketch -->
    <title>checkmark</title>
    <desc>Created with Sketch.</desc>
    <g id="Symbols" stroke="none" stroke-width="1" fill="none">
        <g id="icons/check" transform="translate(-3.000000, -4.000000)">
            <mask id="mask-2" fill="white">
                <path d="M7.23286191,9.56097777 L12.2787743,4.30729811 C12.6613429,3.90897712 13.294379,3.89620728 13.6927,4.27877588 C14.091021,4.66134448 14.1037908,5.29438057 13.7212222,5.69270156 L7.95850513,11.6927006 C7.56665251,12.1006879 6.9146765,12.1026901 6.52032541,11.6971173 L3.28304405,8.36771504 C2.89803619,7.9717513 2.90691768,7.33864872 3.30288142,6.95364085 C3.69884516,6.56863298 4.33194774,6.57751447 4.7169556,6.97347822 L7.23286191,9.56097777 Z"></path>
            </mask>
            <path d="M7.23286191,9.56097777 L12.2787743,4.30729811 C12.6613429,3.90897712 13.294379,3.89620728 13.6927,4.27877588 C14.091021,4.66134448 14.1037908,5.29438057 13.7212222,5.69270156 L7.95850513,11.6927006 C7.56665251,12.1006879 6.9146765,12.1026901 6.52032541,11.6971173 L3.28304405,8.36771504 C2.89803619,7.9717513 2.90691768,7.33864872 3.30288142,6.95364085 C3.69884516,6.56863298 4.33194774,6.57751447 4.7169556,6.97347822 L7.23286191,9.56097777 Z" fill="#FF5824"></path>
        </g>
    </g>
</svg>
