<?xml version="1.0" encoding="UTF-8"?>
<svg width="14px" height="14px" viewBox="0 0 14 14" version="1.1" xmlns="http://www.w3.org/2000/svg" xmlns:xlink="http://www.w3.org/1999/xlink">
    <!-- Generator: Sketch 49.3 (51167) - http://www.bohemiancoding.com/sketch -->
    <title>close</title>
    <desc>Created with Sketch.</desc>
    <g id="Symbols" stroke="none" stroke-width="1" fill="none">
        <g id="icons/x" transform="translate(-1.000000, -1.000000)">
            <mask id="mask-2" fill="white">
                <path d="M7.98864223,6.59714421 L12.7928932,1.79289322 C13.1834175,1.40236893 13.8165825,1.40236893 14.2071068,1.79289322 C14.5976311,2.18341751 14.5976311,2.81658249 14.2071068,3.20710678 L9.40285579,8.01135777 L14.195749,12.804251 C14.5862733,13.1947753 14.5862733,13.8279403 14.195749,14.2184646 C13.8052247,14.6089888 13.1720597,14.6089888 12.7815354,14.2184646 L7.98864223,9.42557134 L3.19574901,14.2184646 C2.80522472,14.6089888 2.17205974,14.6089888 1.78153545,14.2184646 C1.39101115,13.8279403 1.39101115,13.1947753 1.78153545,12.804251 L6.57442866,8.01135777 L1.77068756,3.20761667 C1.38016327,2.81709237 1.38016327,2.18392739 1.77068756,1.7934031 C2.16121185,1.40287881 2.79437683,1.40287881 3.18490112,1.7934031 L7.98864223,6.59714421 Z"></path>
            </mask>
            <path d="M7.98864223,6.59714421 L12.7928932,1.79289322 C13.1834175,1.40236893 13.8165825,1.40236893 14.2071068,1.79289322 C14.5976311,2.18341751 14.5976311,2.81658249 14.2071068,3.20710678 L9.40285579,8.01135777 L14.195749,12.804251 C14.5862733,13.1947753 14.5862733,13.8279403 14.195749,14.2184646 C13.8052247,14.6089888 13.1720597,14.6089888 12.7815354,14.2184646 L7.98864223,9.42557134 L3.19574901,14.2184646 C2.80522472,14.6089888 2.17205974,14.6089888 1.78153545,14.2184646 C1.39101115,13.8279403 1.39101115,13.1947753 1.78153545,12.804251 L6.57442866,8.01135777 L1.77068756,3.20761667 C1.38016327,2.81709237 1.38016327,2.18392739 1.77068756,1.7934031 C2.16121185,1.40287881 2.79437683,1.40287881 3.18490112,1.7934031 L7.98864223,6.59714421 Z" fill="#979797"></path>
        </g>
    </g>
</svg>
