<?xml version="1.0" encoding="UTF-8"?>
<svg width="24px" height="24px" viewBox="0 0 24 24" version="1.1" xmlns="http://www.w3.org/2000/svg" xmlns:xlink="http://www.w3.org/1999/xlink">
    <!-- Generator: Sketch 49.3 (51167) - http://www.bohemiancoding.com/sketch -->
    <title>play</title>
    <desc>Created with Sketch.</desc>
    <g id="Symbols" stroke="none" stroke-width="1" fill="none">
        <g id="icons/play">
            <mask id="mask-2" fill="white">
                <path d="M10,8 L10,16 L16,12 L10,8 Z M12,2 C6.486,2 2,6.486 2,12 C2,17.514 6.486,22 12,22 C17.514,22 22,17.514 22,12 C22,6.486 17.514,2 12,2 L12,2 Z M12,24 C5.383,24 0,18.617 0,12 C0,5.383 5.383,0 12,0 C18.617,0 24,5.383 24,12 C24,18.617 18.617,24 12,24 L12,24 Z"></path>
            </mask>
            <path d="M10,8 L10,16 L16,12 L10,8 Z M12,2 C6.486,2 2,6.486 2,12 C2,17.514 6.486,22 12,22 C17.514,22 22,17.514 22,12 C22,6.486 17.514,2 12,2 L12,2 Z M12,24 C5.383,24 0,18.617 0,12 C0,5.383 5.383,0 12,0 C18.617,0 24,5.383 24,12 C24,18.617 18.617,24 12,24 L12,24 Z" fill="#F97515"></path>
        </g>
    </g>
</svg>
