<?xml version="1.0" encoding="UTF-8"?>
<svg width="19px" height="19px" viewBox="0 0 19 19" version="1.1" xmlns="http://www.w3.org/2000/svg" xmlns:xlink="http://www.w3.org/1999/xlink">
    <!-- Generator: Sketch 49.3 (51167) - http://www.bohemiancoding.com/sketch -->
    <title>social-facebook</title>
    <desc>Created with Sketch.</desc>
    <defs></defs>
    <g id="Symbols" stroke="none" stroke-width="1" fill="none" fill-rule="evenodd">
        <g id="Footer" transform="translate(-1196.000000, -441.000000)" fill="#FF5719">
            <g id="Social" transform="translate(1135.000000, 441.000000)">
                <path d="M80,17.9509425 C80,18.5300719 79.5305767,19 78.9514315,19 L74.1096946,19 L74.1096946,11.6421061 L76.5794721,11.6421061 L76.9495247,8.77492373 L74.1096946,8.77492373 L74.1096946,6.94386032 C74.1096946,6.11372303 74.3405246,5.54804968 75.5309035,5.54804968 L77.049413,5.54753214 L77.049413,2.98259425 C76.7864945,2.94791894 75.8854294,2.8697701 74.8368609,2.8697701 C72.6475988,2.8697701 71.1487565,4.20606341 71.1487565,6.66024733 L71.1487565,8.77492373 L68.6727684,8.77492373 L68.6727684,11.6421061 L71.1487565,11.6421061 L71.1487565,19 L62.0485685,19 C61.4694233,19 61,18.5300719 61,17.9509425 L61,1.04905753 C61,0.469410547 61.4694233,0 62.0485685,0 L78.9514315,0 C79.5305767,0 80,0.469410547 80,1.04905753 L80,17.9509425" id="social-facebook"></path>
            </g>
        </g>
    </g>
</svg>