<?xml version="1.0" encoding="UTF-8"?>
<svg width="29px" height="18px" viewBox="0 0 29 18" version="1.1" xmlns="http://www.w3.org/2000/svg" xmlns:xlink="http://www.w3.org/1999/xlink">
    <!-- Generator: Sketch 49.3 (51167) - http://www.bohemiancoding.com/sketch -->
    <title>social-googleplus</title>
    <desc>Created with Sketch.</desc>
    <defs></defs>
    <g id="Symbols" stroke="none" stroke-width="1" fill="none" fill-rule="evenodd">
        <g id="Footer" transform="translate(-1135.000000, -442.000000)" fill="#FF5719">
            <g id="Social" transform="translate(1135.000000, 441.000000)">
                <path d="M9.12669744,8.21780443 L17.8916595,8.21780443 C18.5019099,12.5308229 16.6604775,19 9.12669744,19 C4.08661283,19 0,14.9701702 0,9.99964952 C0,5.02912886 4.08661283,1 9.12669744,1 C11.4915068,1 13.6462534,1.88671677 15.2676539,3.34191363 C13.357862,5.12095487 13.4205248,5.22680011 12.6699951,5.96701585 C11.732189,5.20226644 10.7096457,4.65341329 9.12669744,4.65341329 C6.13241151,4.65341329 3.79537313,7.0471981 3.79537313,9.99964952 C3.79537313,12.9528019 6.13241151,15.3465867 9.12669744,15.3465867 C12.0853795,15.3465867 13.2873663,14.0883601 14.0606825,11.7772888 C12.6329671,11.7772888 9.12669744,11.7821956 9.12669744,11.7821956 L9.12669744,8.21780443 Z M25.7190117,8.28097345 L29,8.28097345 L29,10.6246313 L25.7190117,10.6246313 L25.7190117,14 L23.3755541,14 L23.3755541,10.6246313 L20,10.6246313 L20,8.28097345 L23.3755541,8.28097345 L23.3755541,5 L25.7190117,5 L25.7190117,8.28097345 Z" id="social-googleplus"></path>
            </g>
        </g>
    </g>
</svg>