<?xml version="1.0" encoding="UTF-8"?>
<svg width="20px" height="17px" viewBox="0 0 20 17" version="1.1" xmlns="http://www.w3.org/2000/svg" xmlns:xlink="http://www.w3.org/1999/xlink">
    <!-- Generator: Sketch 49.3 (51167) - http://www.bohemiancoding.com/sketch -->
    <title>social-twitter</title>
    <desc>Created with Sketch.</desc>
    <defs></defs>
    <g id="Symbols" stroke="none" stroke-width="1" fill="none" fill-rule="evenodd">
        <g id="Footer" transform="translate(-1247.000000, -442.000000)" fill="#FF5719">
            <g id="Social" transform="translate(1135.000000, 441.000000)">
                <path d="M128.840841,2.35407388 C128.094305,1.52071385 127.027368,1 125.846154,1 C123.581983,1 121.74448,2.92163019 121.74448,5.29153183 C121.74448,5.62814392 121.779724,5.9544071 121.850212,6.26868732 C118.440072,6.08948768 115.417083,4.38300599 113.392145,1.7832495 C113.038635,2.41943546 112.836782,3.15747653 112.836782,3.94344942 C112.836782,5.43151453 113.56089,6.74528211 114.662537,7.51491461 C113.990762,7.49421678 113.356901,7.29922143 112.802606,6.98003909 L112.802606,7.03232835 C112.802606,9.11246035 114.217179,10.8478101 116.0958,11.2405242 C115.751902,11.3412899 115.388781,11.3919451 115.014445,11.3919451 C114.750113,11.3919451 114.49219,11.3658005 114.242277,11.31569 C114.764532,13.019993 116.278963,14.2613181 118.074814,14.2945436 C116.670921,15.4459966 114.900702,16.1322931 112.978827,16.1322931 C112.647745,16.1322931 112.320402,16.1126846 112,16.0734677 C113.815609,17.2891929 115.973513,18 118.290017,18 C125.838144,18 129.964382,11.4616642 129.964382,5.78991381 C129.964382,5.60308865 129.961178,5.41680818 129.954236,5.23379578 C130.755774,4.62865656 131.452113,3.87318574 132,3.01259171 C131.265212,3.35356124 130.473821,3.58450546 129.64398,3.68799462 C130.491443,3.15747653 131.141858,2.31649098 131.448375,1.31428022 C130.654847,1.80558137 129.778015,2.16289129 128.840841,2.35407388 Z" id="social-twitter"></path>
            </g>
        </g>
    </g>
</svg>