<?xml version="1.0" encoding="UTF-8"?><!DOCTYPE svg PUBLIC "-//W3C//DTD SVG 1.1//EN" "http://www.w3.org/Graphics/SVG/1.1/DTD/svg11.dtd"><svg xmlns="http://www.w3.org/2000/svg"><symbol id="ico-arrow" viewBox="0 0 14 8">
    <title>
        arrow
    </title>
    <path d="M12.293.293a1 1 0 0 1 1.414 1.414l-6 6a1 1 0 0 1-1.414 0l-6-6A1 1 0 1 1 1.707.293L7 5.586 12.293.293z"/>
</symbol><symbol id="ico-checkmark" viewBox="0 0 11 8">
    <title>
        checkmark
    </title>
    <path d="M4.233 5.561L9.279.307a1 1 0 0 1 1.442 1.386l-5.762 6a1 1 0 0 1-1.439.004L.283 4.367a1 1 0 0 1 1.434-1.394l2.516 2.588z"/>
</symbol><symbol id="ico-close" viewBox="0 0 14 14">
    <title>
        close
    </title>
    <path d="M6.989 5.597L11.793.793a1 1 0 0 1 1.414 1.414L8.403 7.011l4.793 4.793a1 1 0 0 1-1.414 1.414L6.989 8.426l-4.793 4.792a1 1 0 0 1-1.414-1.414l4.792-4.793L.771 2.208A1 1 0 0 1 2.185.793l4.804 4.804z"/>
</symbol><symbol id="ico-mail" viewBox="0 0 22 18">
    <title>
        mail
    </title>
    <path d="M2 16V3.168l9.004 7.109L20 3.08 20.001 16H2zM18.149 2l-7.153 5.723L3.747 2h14.402zM20 0H2C.897 0 0 .897 0 2v14c0 1.103.897 2 2 2h18c1.103 0 2-.897 2-2V2c0-1.103-.897-2-2-2z"/>
</symbol><symbol id="ico-nav-arrow-left" viewBox="0 0 8 13">
    <title>
        nav-arrow-left
    </title>
    <path d="M7.798 12.147l-.709.706L.795 6.528l6.35-6.38.71.705-5.65 5.675z" fill-rule="nonzero"/>
</symbol><symbol id="ico-nav-arrow-right" viewBox="0 0 8 13">
    <title>
        nav-arrow-right
    </title>
    <path d="M.85.853l.71-.706 6.294 6.325-6.35 6.38-.71-.705 5.65-5.675z" fill-rule="nonzero"/>
</symbol><symbol id="ico-play" viewBox="0 0 24 24">
    <title>
        play
    </title>
    <path d="M10 8v8l6-4-6-4zm2-6C6.486 2 2 6.486 2 12s4.486 10 10 10 10-4.486 10-10S17.514 2 12 2zm0 22C5.383 24 0 18.617 0 12S5.383 0 12 0s12 5.383 12 12-5.383 12-12 12z"/>
</symbol><symbol id="ico-quotemark" viewBox="0 0 53 38">
    <title>
        quotemark
    </title>
    <path d="M30.415 37.102v-15.34C30.415 7.212 37.364 1.05 50.605 0l1.704 6.817C44.312 8.26 40.51 12.324 41.035 19.01h6.817v18.092H30.415zM0 37.102v-15.34C0 7.212 6.948 1.05 20.19 0l1.704 6.817c-7.997 1.442-11.8 5.507-11.144 12.193h6.686v18.092H0z" fill-rule="evenodd"/>
</symbol><symbol id="ico-social-facebook" viewBox="0 0 19 19">
    <title>
        social-facebook
    </title>
    <path d="M19 17.95c0 .58-.47 1.05-1.049 1.05H13.11v-7.358h2.47l.37-2.867h-2.84V6.944c0-.83.23-1.396 1.42-1.396h1.52V2.983a20.395 20.395 0 0 0-2.213-.113c-2.19 0-3.688 1.336-3.688 3.79v2.115H7.673v2.867h2.476V19h-9.1C.469 19 0 18.53 0 17.95V1.05C0 .47.47 0 1.049 0H17.95C18.531 0 19 .47 19 1.05v16.9" fill-rule="evenodd"/>
</symbol><symbol id="ico-social-googleplus" viewBox="0 0 29 18">
    <title>
        social-googleplus
    </title>
    <path d="M9.127 7.218h8.765C18.502 11.53 16.66 18 9.127 18 4.087 18 0 13.97 0 9s4.087-9 9.127-9c2.365 0 4.52.887 6.14 2.342-1.91 1.779-1.846 1.885-2.597 2.625-.938-.765-1.96-1.314-3.543-1.314-2.995 0-5.332 2.394-5.332 5.347 0 2.953 2.337 5.347 5.332 5.347 2.958 0 4.16-1.259 4.934-3.57-1.428 0-4.934.005-4.934.005V7.218zm16.592.063H29v2.344h-3.281V13h-2.343V9.625H20V7.28h3.376V4h2.343v3.281z" fill-rule="evenodd"/>
</symbol><symbol id="ico-social-twitter" viewBox="0 0 20 17">
    <title>
        social-twitter
    </title>
    <path d="M16.84 1.354A4.012 4.012 0 0 0 13.847 0c-2.264 0-4.102 1.922-4.102 4.292 0 .336.036.662.106.977-3.41-.18-6.433-1.886-8.458-4.486a4.437 4.437 0 0 0-.555 2.16c0 1.489.724 2.802 1.826 3.572a3.97 3.97 0 0 1-1.86-.535v.052c0 2.08 1.414 3.816 3.293 4.209a3.922 3.922 0 0 1-1.854.075c.523 1.704 2.037 2.945 3.833 2.979A8.005 8.005 0 0 1 0 15.073 11.263 11.263 0 0 0 6.29 17c7.548 0 11.674-6.538 11.674-12.21 0-.187-.003-.373-.01-.556A8.52 8.52 0 0 0 20 2.013a7.916 7.916 0 0 1-2.356.675A4.272 4.272 0 0 0 19.448.314a7.975 7.975 0 0 1-2.607 1.04z" fill-rule="evenodd"/>
</symbol></svg>