<svg width="125" height="20" xmlns="http://www.w3.org/2000/svg"><g fill="none"><path d="M124.439 18.319a.507.507 0 0 1-.379.844h-4.095a.507.507 0 0 1-.378-.17l-5.537-6.206h-4.907v5.87c0 .28-.227.506-.507.506h-3.172a.507.507 0 0 1-.507-.507V.516c0-.28.227-.508.507-.508h9.933c5.107 0 8.407 2.53 8.407 6.443 0 1.206-.4 4.625-4.714 5.873l5.349 5.995zM96.8 10.999V.52c0-.28.227-.507.507-.507h3.211c.28 0 .507.227.507.507V11c0 5.304-3.88 8.732-10.011 8.732-6.11 0-9.989-3.347-9.989-8.733V.52c0-.28.227-.507.507-.507h3.212c.28 0 .507.227.507.507V11c0 3.032 1.94 4.506 5.763 4.506 3.73 0 5.786-1.643 5.786-4.507zM73.102.171a.507.507 0 0 1 .38-.171h4.287a.507.507 0 0 1 .38.843l-7.843 8.865 7.768 8.738a.507.507 0 0 1-.379.844h-4.297a.507.507 0 0 1-.379-.17l-5.538-6.23-5.535 6.23a.507.507 0 0 1-.379.17h-4.296a.507.507 0 0 1-.379-.844l7.763-8.738L56.788.844a.507.507 0 0 1 .38-.844h4.293a.51.51 0 0 1 .38.17l5.64 6.356L73.102.171zM40.037.267A.507.507 0 0 1 40.484 0h3.775c.186 0 .358.103.446.267l9.83 18.276a.507.507 0 0 1-.447.747h-3.646a.507.507 0 0 1-.447-.267L47.75 14.85H36.988l-2.247 4.175a.507.507 0 0 1-.446.266h-3.647a.507.507 0 0 1-.447-.747L40.037.267zm-1.077 10.92h6.82L42.371 4.85l-3.411 6.338zm70.195-7.53l-.012 5.482h6.097c1.96 0 3.001-.465 3.529-.855.586-.434.836-.98.836-1.827 0-.657-.315-2.8-4.365-2.8h-6.085z" fill="#222"/><path d="M30.276.222l-9.94 18.445a.423.423 0 0 0 .372.623h3.853a.423.423 0 0 0 .372-.222L34.873.623a.423.423 0 0 0-.37-.623h-3.854a.423.423 0 0 0-.372.222z" fill="#C92828"/><path d="M20.136.222l-9.941 18.445a.423.423 0 0 0 .372.623h3.853a.423.423 0 0 0 .372-.222L24.732.623a.423.423 0 0 0-.37-.623h-3.854a.423.423 0 0 0-.371.222z" fill="#FF5824"/><path d="M9.995.222L.055 18.667a.423.423 0 0 0 .371.623h3.853a.423.423 0 0 0 .372-.222L14.591.623A.423.423 0 0 0 14.22 0h-3.853a.423.423 0 0 0-.372.222z" fill="#FA9043"/></g></svg>