<!-- Generator: Adobe Illustrator 20.1.0, SVG Export Plug-In  -->
<svg version="1.1"
	 xmlns="http://www.w3.org/2000/svg" xmlns:xlink="http://www.w3.org/1999/xlink" xmlns:a="http://ns.adobe.com/AdobeSVGViewerExtensions/3.0/"
	 x="0px" y="0px" width="883.2px" height="705.3px" viewBox="0 0 883.2 705.3" style="enable-background:new 0 0 883.2 705.3;"
	 xml:space="preserve">
<style type="text/css">
	.st0{fill:#8062EF;}
	.st1{fill:#FFFFFF;}
	.st2{fill:#5B26ED;}
	.st3{fill:none;stroke:#5B26ED;stroke-width:3;stroke-miterlimit:10;}
	.st4{fill:#3F1CBA;}
	.st5{fill:#FF7B4E;}
	.st6{fill:#00C6DB;}
	.st7{fill:#FFD853;}
	.st8{opacity:0.2;fill:#0075EA;}
	.st9{fill:#FF5824;}
	.st10{fill:#F2F2F2;}
	.st11{fill:#F97615;}
	.st12{fill:#FFA669;}
	.st13{fill:none;stroke:#F97615;stroke-width:3;stroke-miterlimit:10;}
	.st14{fill:#FC3232;}
	.st15{fill:#394347;}
	.st16{fill:#283133;}
	.st17{fill:none;stroke:#F97615;stroke-miterlimit:10;}
	.st18{fill:none;stroke:#394347;stroke-width:6;stroke-linecap:round;stroke-linejoin:round;stroke-miterlimit:10;}
	.st19{fill:none;stroke:#FFA669;stroke-miterlimit:10;}
	.st20{fill:none;stroke:#515151;stroke-width:3;stroke-linecap:round;stroke-linejoin:round;stroke-miterlimit:10;}
	.st21{fill:none;stroke:#394347;stroke-width:12;stroke-linecap:round;stroke-linejoin:round;stroke-miterlimit:10;}
	.st22{fill:none;stroke:#FFFFFF;stroke-width:0.75;stroke-miterlimit:10;}
</style>
<defs>
</defs>
<path class="st0" d="M701.9,143.4l-579.1,0c-16.4,0-29.8,13.3-29.8,29.8v388.4c0,16.4,13.3,29.8,29.8,29.8h579.1
	c17.3,0,31.3-14,31.3-31.3V174.7C733.2,157.4,719.2,143.4,701.9,143.4z"/>
<rect x="124.4" y="170.4" class="st1" width="577.3" height="331.6"/>
<polygon class="st2" points="505.2,685.4 304.9,685.4 326.9,591.4 483.2,591.4 "/>
<path class="st0" d="M538,703.7H272v0c0-10.1,8.2-18.3,18.3-18.3h229.3C529.8,685.4,538,693.6,538,703.7L538,703.7z"/>
<path class="st2" d="M60.8,143.4h61.9c-16.4,0-29.8,13.3-29.8,29.8v388.4c0,16.4,13.3,29.8,29.8,29.8H60.8
	c-16.4,0-29.8-13.3-29.8-29.8V173.2C31.1,156.8,44.4,143.4,60.8,143.4z"/>
<circle class="st3" cx="405" cy="548" r="24.9"/>
<polygon class="st4" points="490.1,620.9 483.2,591.4 326.9,591.4 320,620.9 "/>
<path class="st4" d="M62.9,293.9L62.9,293.9c-2.9,0-5.3-2.4-5.3-5.3v-45.4c0-2.9,2.4-5.3,5.3-5.3h0c2.9,0,5.3,2.4,5.3,5.3v45.4
	C68.3,291.5,65.9,293.9,62.9,293.9z"/>
<path class="st4" d="M62.9,373.6L62.9,373.6c-2.9,0-5.3-2.4-5.3-5.3v-45.4c0-2.9,2.4-5.3,5.3-5.3h0c2.9,0,5.3,2.4,5.3,5.3v45.4
	C68.3,371.2,65.9,373.6,62.9,373.6z"/>
<path class="st4" d="M62.9,489.7L62.9,489.7c-2.9,0-5.3-2.4-5.3-5.3v-21c0-2.9,2.4-5.3,5.3-5.3h0c2.9,0,5.3,2.4,5.3,5.3v21
	C68.3,487.3,65.9,489.7,62.9,489.7z"/>
<circle class="st5" cx="162.4" cy="198.3" r="7.9"/>
<circle class="st6" cx="201.8" cy="198.3" r="7.9"/>
<circle class="st7" cx="182.1" cy="198.3" r="7.9"/>
<path class="st8" d="M578.7,210.5h-294c-6.7,0-12.2-5.5-12.2-12.2v0c0-6.7,5.5-12.2,12.2-12.2h294c6.7,0,12.2,5.5,12.2,12.2v0
	C591,205,585.5,210.5,578.7,210.5z"/>
<path class="st8" d="M467.5,273H280.1c-4.2,0-7.7-3.4-7.7-7.7v0c0-4.2,3.4-7.7,7.7-7.7h187.4c4.2,0,7.7,3.4,7.7,7.7l0,0
	C475.2,269.6,471.7,273,467.5,273z"/>
<path class="st8" d="M467.5,295.8H280.1c-4.2,0-7.7-3.4-7.7-7.7v0c0-4.2,3.4-7.7,7.7-7.7h187.4c4.2,0,7.7,3.4,7.7,7.7v0
	C475.2,292.4,471.7,295.8,467.5,295.8z"/>
<path class="st8" d="M381.4,318.6H280.1c-4.2,0-7.7-3.4-7.7-7.7l0,0c0-4.2,3.4-7.7,7.7-7.7h101.3c4.2,0,7.7,3.4,7.7,7.7l0,0
	C389.1,315.2,385.6,318.6,381.4,318.6z"/>
<path class="st8" d="M202,273h-39.9c-4.2,0-7.7-3.4-7.7-7.7l0,0c0-4.2,3.4-7.7,7.7-7.7H202c4.2,0,7.7,3.4,7.7,7.7l0,0
	C209.7,269.6,206.3,273,202,273z"/>
<path class="st8" d="M467.5,409.2H280.1c-4.2,0-7.7-3.4-7.7-7.7l0,0c0-4.2,3.4-7.7,7.7-7.7h187.4c4.2,0,7.7,3.4,7.7,7.7l0,0
	C475.2,405.8,471.7,409.2,467.5,409.2z"/>
<path class="st8" d="M652.2,424.3H527.3c-4.2,0-7.7-3.4-7.7-7.7v0c0-4.2,3.4-7.7,7.7-7.7h124.9c4.2,0,7.7,3.4,7.7,7.7v0
	C659.8,420.9,656.4,424.3,652.2,424.3z"/>
<path class="st8" d="M467.5,432H280.1c-4.2,0-7.7-3.4-7.7-7.7v0c0-4.2,3.4-7.7,7.7-7.7h187.4c4.2,0,7.7,3.4,7.7,7.7v0
	C475.2,428.6,471.7,432,467.5,432z"/>
<path class="st8" d="M381.4,454.8H280.1c-4.2,0-7.7-3.4-7.7-7.7v0c0-4.2,3.4-7.7,7.7-7.7h101.3c4.2,0,7.7,3.4,7.7,7.7v0
	C389.1,451.3,385.6,454.8,381.4,454.8z"/>
<path class="st9" d="M330.7,356.1h-48c-5.7,0-10.2-4.6-10.2-10.2l0,0c0-5.7,4.6-10.2,10.2-10.2h48c5.7,0,10.2,4.6,10.2,10.2l0,0
	C341,351.6,336.4,356.1,330.7,356.1z"/>
<rect x="519.6" y="257.7" class="st8" width="140.2" height="140.2"/>
<polygon class="st8" points="519.6,397.9 589.7,327.8 659.8,397.9 "/>
<circle class="st8" cx="589.7" cy="327.8" r="39.3"/>
<path class="st10" d="M207.6,285.9h-58.2c-4.4,0-8,3.6-8,8v83.5c0,4.4,3.6,8,8,8h58.2c4.4,0,8-3.6,8-8v-83.5
	C215.6,289.5,212,285.9,207.6,285.9z"/>
<g>
	<path class="st11" d="M613.2,703.6H509.9c-15.6,0-28.3-12.7-28.3-28.3V444.7c0-15.6,12.7-28.3,28.3-28.3h103.3
		c15.6,0,28.3,12.7,28.3,28.3v230.6C641.5,691,628.9,703.6,613.2,703.6z"/>
	<path class="st12" d="M637.8,703.6H534.4c-15.6,0-28.3-12.7-28.3-28.3V444.7c0-15.6,12.7-28.3,28.3-28.3h103.3
		c15.6,0,28.3,12.7,28.3,28.3v230.6C666.1,691,653.4,703.6,637.8,703.6z"/>
	<circle class="st13" cx="588.8" cy="674.3" r="16.7"/>
	<rect x="526.5" y="438.1" class="st1" width="119.3" height="206.7"/>
	<path class="st8" d="M625.3,473.7h-78.5c-4.2,0-7.7-3.4-7.7-7.7v0c0-4.2,3.4-7.7,7.7-7.7h78.5c4.2,0,7.7,3.4,7.7,7.7v0
		C633,470.3,629.6,473.7,625.3,473.7z"/>
	<path class="st10" d="M624.2,632.8H548c-4.9,0-8.8-3.9-8.8-8.8V498.8c0-4.9,3.9-8.8,8.8-8.8h76.1c4.9,0,8.8,3.9,8.8,8.8V624
		C633,628.9,629,632.8,624.2,632.8z"/>
</g>
<g>
	<path class="st14" d="M624.2,632.8H548c-4.9,0-8.8-3.9-8.8-8.8V498.8c0-4.9,3.9-8.8,8.8-8.8h76.1c4.9,0,8.8,3.9,8.8,8.8V624
		C633,628.9,629,632.8,624.2,632.8z"/>
	<g>
		<polygon class="st1" points="597.8,554.7 597.8,550.1 574.4,550.1 574.4,554.7 569.6,554.7 569.6,568.5 574.4,568.5 574.4,577.6
			579,577.6 579,573.1 583.6,573.1 583.6,577.6 588.6,577.6 588.6,573.1 593.2,573.1 593.2,577.6 597.8,577.6 597.8,568.5
			602.6,568.5 602.6,554.7 		"/>
		<rect x="574.4" y="559.3" class="st14" width="9.2" height="4.6"/>
		<rect x="588.6" y="559.3" class="st14" width="9.2" height="4.6"/>
		<polygon class="st1" points="569.6,540.6 565,540.6 565,545.2 560.4,545.2 560.4,549.8 569.6,549.8 569.6,549.8 569.6,549.8 		"/>
		<polygon class="st1" points="611.8,549.8 611.8,545.2 607.2,545.2 607.2,540.6 602.6,540.6 602.6,549.8 602.6,549.8 602.6,549.8
					"/>
		<polygon class="st1" points="602.6,582.2 607.2,582.2 607.2,577.6 611.8,577.6 611.8,573.1 602.6,573 602.6,573.1 602.6,573.1
			"/>
		<polygon class="st1" points="560.4,573.1 560.4,577.6 565,577.6 565,582.2 569.6,582.2 569.6,573.1 569.6,573.1 569.6,573 		"/>
	</g>
</g>
<g>
	<path class="st15" d="M724.1,573.8c4.2,0,7.5-3.4,7.5-7.5v-34.5c0-4.2-3.4-7.5-7.5-7.5c-4.2,0-7.5,3.4-7.5,7.5v34.5
		C716.5,570.4,719.9,573.8,724.1,573.8z"/>
</g>
<circle class="st11" cx="724.1" cy="532.4" r="4.5"/>
<path class="st16" d="M724.1,559c-4.2,0-7.5,3.4-7.5,7.5v-5.7c0-4.2,3.4-7.5,7.5-7.5c4.2,0,7.5,3.4,7.5,7.5v5.7
	C731.6,562.3,728.2,559,724.1,559z"/>
<path class="st16" d="M715.4,616.5c4.1,0.7,8-2,8.7-6.1l-1,5.6c-0.7,4.1-4.6,6.9-8.7,6.1s-6.9-4.6-6.1-8.7l1-5.6
	C708.6,611.9,711.3,615.8,715.4,616.5z"/>
<g>
	<path class="st15" d="M715.4,616.5c4.1,0.7,8-2,8.7-6.1l7.3-42.6c0.7-4.1-2-8-6.1-8.7s-8,2-8.7,6.1l-7.3,42.6
		C708.6,611.9,711.3,615.8,715.4,616.5z"/>
</g>
<ellipse transform="matrix(0.8178 -0.5755 0.5755 0.8178 -194.4158 520.0128)" class="st11" cx="724.1" cy="567.1" rx="4.2" ry="4.2"/>
<line class="st17" x1="724.1" y1="567.1" x2="715.4" y2="616.5"/>
<g>
	<path class="st12" d="M716.2,625.4l0.6-3.3c0.3-1.3-0.6-2.6-1.9-2.8l0,0c-1.3-0.3-2.6,0.6-2.8,1.9l-2.4,12.1
		c-0.5,2.3,0,4.7,1.3,6.6l5.6,8.2c0.5,0.7,1.6,0.5,1.9-0.3l0.3-1.3c0.6-2.5,0.1-5.2-1.4-7.3l-1-1.4c-0.6-0.9-0.9-2-0.6-3.1l0.8-3.7
		l1.7,1.8c0.7,0.7,1.9,0.6,2.4-0.4l0,0c0.2-0.5,0.2-1.1-0.2-1.6C719.2,629.4,716.2,625.4,716.2,625.4z"/>
	<path class="st11" d="M711.8,633.7c-0.3,1.7,0,3.5,1.1,5l5.8,8.5l0.1-0.6c0-0.1,0-0.1,0-0.2l-5.5-8c-0.9-1.3-1.3-2.9-1-4.5l1.5-7.6
		l6.1,7c0.2-0.1,0.3-0.2,0.5-0.4l-6.4-7.4l0,0l1.2-6.1c-0.1,0-0.2-0.1-0.3-0.1c-0.1,0-0.2,0-0.3,0L711.8,633.7z"/>
</g>
<polyline class="st18" points="737.1,592.1 730.9,627 737.1,652.5 "/>
<circle class="st11" cx="730.9" cy="626.6" r="6.9"/>
<path class="st12" d="M737.7,652.5h-10.8c-2.7,0-4.9,2.2-4.9,4.9v32.5h-5.6c-2.9,0-5.2,2.3-5.2,5.2v9.1h26.6c2.7,0,4.8-2.2,4.8-4.8
	v-42C742.6,654.7,740.4,652.5,737.7,652.5z"/>
<path class="st11" d="M744.2,652.5h-7.1c-2.7,0-4.9,2.2-4.9,4.9v32.5h-3.3c-2.9,0-5.2,2.3-5.2,5.2v9.1h20.6c2.7,0,4.8-2.2,4.8-4.8
	v-42C749.1,654.7,746.9,652.5,744.2,652.5z"/>
<path class="st19" d="M749.1,662.8h-2.7c-2.6,0-4.8,2.1-4.8,4.8v23.8"/>
<circle class="st12" cx="741.6" cy="691.4" r="3.3"/>
<path class="st2" d="M749.1,699v0.4c0,2.7-2.2,4.8-4.8,4.8h-20.6V699H749.1z"/>
<rect x="711.2" y="699" class="st0" width="12.5" height="5.2"/>
<circle class="st11" cx="726.9" cy="671" r="2.3"/>
<circle class="st11" cx="726.9" cy="678.6" r="2.3"/>
<circle class="st11" cx="726.9" cy="663.4" r="2.3"/>
<path class="st11" d="M801.1,589.7c0-5-4-9-9-9h19.8c5,0,9,4,9,9c0,5-4,9-9,9h-19.8C797.1,598.7,801.1,594.6,801.1,589.7z"/>
<polyline class="st18" points="809.1,596.4 809.1,627 823.4,652.5 "/>
<path class="st12" d="M735.5,598.7h57.8c4.4,0,7.9-3.5,7.9-7.9v-2.2c0-4.4-3.5-7.9-7.9-7.9h-57.8c-4.4,0-7.9,3.5-7.9,7.9v2.2
	C727.6,595.1,731.1,598.7,735.5,598.7z"/>
<line class="st17" x1="801.1" y1="589.7" x2="766.5" y2="589.7"/>
<circle class="st17" cx="763.1" cy="589.7" r="3.4"/>
<line class="st17" x1="763.1" y1="593" x2="763.1" y2="598.7"/>
<path class="st12" d="M757.8,501.4h20.8c7.7,0,13.9-6.2,13.9-13.9l0,0c0-7.7-6.2-13.9-13.9-13.9h-20.8c-7.7,0-13.9,6.2-13.9,13.9
	l0,0C743.9,495.2,750.2,501.4,757.8,501.4"/>
<path class="st15" d="M745.9,495.2h25.3c3.7,0,6.6-3,6.6-6.6v-1.9c0-3.7-3-6.6-6.6-6.6h-25.3c-3.7,0-6.6,3-6.6,6.6v1.9
	C739.3,492.2,742.2,495.2,745.9,495.2z"/>
<circle class="st11" cx="792.3" cy="487.6" r="4.8"/>
<path class="st1" d="M745.6,490.3h19.5c1.3,0,2.4-1.1,2.4-2.4v-0.7c0-1.3-1.1-2.4-2.4-2.4h-19.5c-1.3,0-2.4,1.1-2.4,2.4v0.7
	C743.3,489.2,744.3,490.3,745.6,490.3z"/>
<g>

		<rect x="761.4" y="564.5" transform="matrix(-1 -4.528035e-11 4.528035e-11 -1 1537.4974 1145.1259)" class="st15" width="14.8" height="16.2"/>
	<rect x="776.1" y="564.5" class="st16" width="5" height="16.2"/>
</g>
<path class="st11" d="M809.1,525v-2.3c0-4.3-3.5-7.8-7.8-7.8h20.7c4.3,0,7.8,3.5,7.8,7.8v2.3c0,21.8-17.7,39.4-39.4,39.4h-20.7
	c0,0,0,0,0,0C791.5,564.5,809.1,546.8,809.1,525z"/>
<path class="st12" d="M748.8,564.5h24.1c20,0,36.2-16.2,36.2-36.2v-6.2c0-3.9-3.2-7.1-7.1-7.1h-82.3c-3.9,0-7.1,3.2-7.1,7.1v6.2
	C712.6,548.3,728.8,564.5,748.8,564.5z"/>
<circle class="st2" cx="760.9" cy="534.9" r="6.6"/>
<path class="st11" d="M744.8,524.7V515h0.6v16.1c0,8.5,6.9,15.5,15.5,15.5s15.5-6.9,15.5-15.5V515h0.6v9.7h32.2v0.6H777v5.7
	c0,8.8-7.1,15.9-15.8,16.1v17.3h-0.6v-17.3c-8.7-0.2-15.8-7.3-15.8-16.1v-5.7h-32.2v-0.6H744.8z"/>
<circle class="st0" cx="760.9" cy="534.9" r="4.3"/>
<line class="st17" x1="763.1" y1="580.6" x2="763.1" y2="586.3"/>
<line class="st17" x1="759.7" y1="589.7" x2="727.6" y2="589.7"/>
<circle class="st11" cx="809.1" cy="626.6" r="6.9"/>
<path class="st12" d="M821.3,646.3l-9.9,4.4c-2.5,1.1-3.6,4-2.5,6.5l13.2,29.7l-5.2,2.3c-2.6,1.2-3.8,4.2-2.6,6.8l3.7,8.4l24.3-10.8
	c2.4-1.1,3.5-3.9,2.4-6.4l-17.1-38.4C826.7,646.3,823.8,645.2,821.3,646.3z"/>
<path class="st11" d="M827.2,643.7l-6.5,2.9c-2.5,1.1-3.6,4-2.5,6.5l13.2,29.7l-3,1.4c-2.6,1.2-3.8,4.2-2.6,6.8l3.7,8.4l18.8-8.4
	c2.4-1.1,3.5-3.9,2.4-6.4l-17.1-38.4C832.6,643.7,829.7,642.6,827.2,643.7z"/>
<path class="st19" d="M835.9,651.1l-2.5,1.1c-2.4,1.1-3.5,3.9-2.4,6.3l9.7,21.7"/>
<ellipse transform="matrix(0.9134 -0.4072 0.4072 0.9134 -204.1213 401.2244)" class="st12" cx="840.7" cy="680.2" rx="3.3" ry="3.3"/>
<path class="st2" d="M850.6,684.2l0.2,0.3c1.1,2.4,0,5.3-2.4,6.4l-18.8,8.4l-2.1-4.8L850.6,684.2z"/>
<rect x="816.5" y="696.8" transform="matrix(0.9134 -0.4072 0.4072 0.9134 -213.486 395.6012)" class="st0" width="12.5" height="5.2"/>
<ellipse transform="matrix(0.9134 -0.4072 0.4072 0.9134 -200.878 391.2952)" class="st11" cx="819" cy="667.6" rx="2.3" ry="2.3"/>
<ellipse transform="matrix(0.9134 -0.4072 0.4072 0.9134 -203.4443 393.1624)" class="st11" cx="822.1" cy="674.6" rx="2.3" ry="2.3"/>
<ellipse transform="matrix(0.9134 -0.4072 0.4072 0.9134 -198.3118 389.428)" class="st11" cx="815.9" cy="660.7" rx="2.3" ry="2.3"/>
<g>
	<path class="st15" d="M819.3,573.8c4.2,0,7.5-3.4,7.5-7.5v-34.5c0-4.2-3.4-7.5-7.5-7.5c-4.2,0-7.5,3.4-7.5,7.5v34.5
		C811.7,570.4,815.1,573.8,819.3,573.8z"/>
</g>
<circle class="st11" cx="819.3" cy="532.4" r="4.5"/>
<path class="st17" d="M819.3,532.4v12.3c0,2.9-2.4,5.3-5.3,5.3h-2.2"/>
<path class="st16" d="M819.3,559c-4.2,0-7.5,3.4-7.5,7.5v-5.7c0-4.2,3.4-7.5,7.5-7.5c4.2,0,7.5,3.4,7.5,7.5v5.7
	C826.8,562.3,823.4,559,819.3,559z"/>
<path class="st16" d="M783.4,602.2c2.9,2.9,7.7,2.9,10.7,0l-4,4c-2.9,2.9-7.7,2.9-10.7,0c-2.9-2.9-2.9-7.7,0-10.7l4-4
	C780.5,594.5,780.5,599.3,783.4,602.2z"/>
<g>
	<path class="st15" d="M783.4,602.2c2.9,2.9,7.7,2.9,10.7,0l30.5-30.6c2.9-2.9,2.9-7.7,0-10.7c-2.9-2.9-7.7-2.9-10.7,0l-30.5,30.6
		C780.5,594.5,780.5,599.3,783.4,602.2z"/>
</g>
<circle class="st11" cx="819" cy="566.8" r="4.2"/>
<line class="st17" x1="819" y1="566.8" x2="783.4" y2="602.2"/>
<g>
	<path class="st12" d="M775.8,606.1l2.4-2.3c1-0.9,2.5-0.9,3.4,0l0,0c0.9,1,0.9,2.5,0,3.4l-8.8,8.6c-1.7,1.6-3.9,2.6-6.3,2.5
		l-9.9-0.1c-0.9,0-1.4-1.1-0.7-1.7l0.9-1c1.8-1.9,4.3-3,6.9-2.8l1.7,0.1c1.1,0.1,2.2-0.4,2.9-1.2l2.6-2.7l-2.5-0.4
		c-1-0.2-1.5-1.3-1-2.2l0,0c0.3-0.5,0.8-0.8,1.4-0.7C770.8,605.7,775.8,606.1,775.8,606.1z"/>
	<path class="st11" d="M771.2,614.3c-1.3,1.2-3,1.9-4.7,1.8l-10.3-0.2l0.4-0.5c0,0,0.1-0.1,0.1-0.1l9.7,0.2c1.6,0.1,3.2-0.6,4.3-1.7
		l5.5-5.4l-9.2-1.2c0-0.2,0-0.4,0-0.6l9.7,1.3l0,0l4.5-4.4c0.1,0.1,0.2,0.1,0.2,0.2c0.1,0.1,0.1,0.2,0.2,0.2L771.2,614.3z"/>
</g>
<line class="st20" x1="698.9" y1="703.8" x2="837.8" y2="703.8"/>
<polygon class="st1" points="755.3,487.7 608.2,454.8 608.2,535.5 "/>
<g>
	<circle class="st11" cx="127.1" cy="531.8" r="4.5"/>
	<g>
		<g>
			<path class="st15" d="M162.7,492.1c2.9,2.9,2.9,7.7,0,10.7l-24.4,24.4c-2.9,2.9-7.7,2.9-10.7,0c-2.9-2.9-2.9-7.7,0-10.7
				l24.4-24.4C155,489.2,159.7,489.2,162.7,492.1z"/>
		</g>
		<path class="st16" d="M152.2,502.6c-2.9-2.9-2.9-7.7,0-10.7l-4,4c-2.9,2.9-2.9,7.7,0,10.7c2.9,2.9,7.7,2.9,10.7,0l4-4
			C159.9,505.6,155.1,505.6,152.2,502.6z"/>
		<path class="st16" d="M186.7,455.9c3.4,2.4,4.2,7.1,1.8,10.5l3.3-4.7c2.4-3.4,1.6-8.1-1.8-10.5c-3.4-2.4-8.1-1.6-10.5,1.8
			l-3.3,4.7C178.6,454.3,183.3,453.5,186.7,455.9z"/>
		<g>
			<path class="st15" d="M186.8,455.9c3.4,2.4,4.2,7.1,1.8,10.5l-24.9,35.3c-2.4,3.4-7.1,4.2-10.5,1.8c-3.4-2.4-4.2-7.1-1.8-10.5
				l24.9-35.3C178.6,454.3,183.3,453.5,186.8,455.9z"/>
		</g>
		<ellipse transform="matrix(0.9852 -0.1714 0.1714 0.9852 -82.8335 34.4245)" class="st11" cx="158" cy="497" rx="4.2" ry="4.2"/>
		<line class="st17" x1="158" y1="497" x2="186.8" y2="455.9"/>
		<g>
			<path class="st12" d="M193.6,450.1l-1.9,2.8c-0.7,1.1-2.2,1.4-3.4,0.7h0c-1.1-0.7-1.4-2.2-0.7-3.4l6.9-10.2
				c1.3-1.9,3.3-3.3,5.6-3.7l9.8-1.9c0.9-0.2,1.5,0.8,1.1,1.6l-0.7,1.1c-1.4,2.2-3.6,3.8-6.2,4.2l-1.7,0.3c-1.1,0.2-2,0.8-2.6,1.7
				l-2,3.2l2.5-0.1c1,0,1.8,1,1.4,1.9l0,0c-0.2,0.5-0.7,0.9-1.2,1C198.5,449.4,193.6,450.1,193.6,450.1z"/>
			<path class="st11" d="M196.3,441.1c1-1.5,2.5-2.5,4.3-2.8l10.1-1.9l-0.3,0.5c0,0.1-0.1,0.1-0.1,0.2l-9.6,1.8
				c-1.6,0.3-3,1.2-3.9,2.5l-4.3,6.4l9.3-0.7c0.1,0.2,0.1,0.4,0.1,0.6l-9.8,0.7l0,0l-3.5,5.2c-0.1,0-0.2-0.1-0.3-0.1
				c-0.1-0.1-0.2-0.1-0.2-0.2L196.3,441.1z"/>
		</g>
	</g>
	<polyline class="st18" points="114.2,591.5 120.3,626.4 114.2,652 	"/>
	<circle class="st11" cx="120.3" cy="626.1" r="6.9"/>
	<path class="st12" d="M113.5,651.9h10.8c2.7,0,4.9,2.2,4.9,4.9v32.5h5.6c2.9,0,5.2,2.3,5.2,5.2v9.1h-26.6c-2.7,0-4.8-2.2-4.8-4.8
		v-42C108.6,654.1,110.8,651.9,113.5,651.9z"/>
	<path class="st11" d="M107,651.9h7.1c2.7,0,4.9,2.2,4.9,4.9v32.5h3.3c2.9,0,5.2,2.3,5.2,5.2v9.1H107c-2.7,0-4.8-2.2-4.8-4.8v-42
		C102.1,654.1,104.3,651.9,107,651.9z"/>
	<path class="st19" d="M102.1,662.3h2.7c2.6,0,4.8,2.1,4.8,4.8v23.8"/>
	<circle class="st12" cx="109.6" cy="690.8" r="3.3"/>
	<path class="st2" d="M102.1,698.5v0.4c0,2.7,2.2,4.8,4.8,4.8h20.6v-5.2H102.1z"/>
	<rect x="127.5" y="698.5" class="st0" width="12.5" height="5.2"/>
	<circle class="st11" cx="124.3" cy="670.5" r="2.3"/>
	<circle class="st11" cx="124.3" cy="678.1" r="2.3"/>
	<circle class="st11" cx="124.3" cy="662.9" r="2.3"/>
	<path class="st11" d="M50.1,589.1c0-5,4-9,9-9H39.3c-5,0-9,4-9,9s4,9,9,9h19.8C54.1,598.1,50.1,594.1,50.1,589.1z"/>
	<polyline class="st18" points="42.1,595.8 42.1,626.4 27.8,652 	"/>
	<path class="st12" d="M115.7,598.1H58c-4.4,0-7.9-3.5-7.9-7.9V588c0-4.4,3.5-7.9,7.9-7.9h57.8c4.4,0,7.9,3.5,7.9,7.9v2.2
		C123.6,594.6,120.1,598.1,115.7,598.1z"/>
	<line class="st17" x1="50.1" y1="589.1" x2="84.7" y2="589.1"/>
	<circle class="st17" cx="88.1" cy="589.1" r="3.4"/>
	<line class="st17" x1="88.1" y1="592.5" x2="88.1" y2="598.1"/>
	<path class="st12" d="M93.4,500.9H72.6c-7.7,0-13.9-6.2-13.9-13.9v0c0-7.7,6.2-13.9,13.9-13.9h20.8c7.7,0,13.9,6.2,13.9,13.9v0
		C107.3,494.7,101.1,500.9,93.4,500.9"/>
	<path class="st15" d="M105.3,494.6H80c-3.7,0-6.6-3-6.6-6.6v-1.9c0-3.7,3-6.6,6.6-6.6h25.3c3.7,0,6.6,3,6.6,6.6v1.9
		C111.9,491.6,109,494.6,105.3,494.6z"/>
	<circle class="st11" cx="58.9" cy="487" r="4.8"/>
	<path class="st1" d="M105.6,489.7H86c-1.3,0-2.4-1.1-2.4-2.4v-0.7c0-1.3,1.1-2.4,2.4-2.4h19.5c1.3,0,2.4,1.1,2.4,2.4v0.7
		C107.9,488.7,106.9,489.7,105.6,489.7z"/>
	<g>
		<rect x="75.1" y="563.9" class="st15" width="14.8" height="16.2"/>
		<rect x="70.1" y="563.9" class="st16" width="5" height="16.2"/>
	</g>
	<path class="st11" d="M42.1,524.5v-2.3c0-4.3,3.5-7.8,7.8-7.8H29.1c-4.3,0-7.8,3.5-7.8,7.8v2.3c0,21.8,17.7,39.4,39.4,39.4h20.7
		c0,0,0,0,0,0C59.7,563.9,42.1,546.3,42.1,524.5z"/>
	<path class="st12" d="M102.4,563.9H78.3c-20,0-36.2-16.2-36.2-36.2v-6.2c0-3.9,3.2-7.1,7.1-7.1h82.3c3.9,0,7.1,3.2,7.1,7.1v6.2
		C138.6,547.7,122.4,563.9,102.4,563.9z"/>
	<circle class="st2" cx="90.3" cy="534.4" r="6.6"/>
	<path class="st11" d="M106.4,524.2v-9.7h-0.6v16.1c0,8.5-6.9,15.5-15.5,15.5s-15.5-6.9-15.5-15.5v-16.1h-0.6v9.7H42.1v0.6h32.2v5.7
		c0,8.8,7.1,15.9,15.8,16.1v17.3h0.6v-17.3c8.7-0.2,15.8-7.3,15.8-16.1v-5.7h32.2v-0.6H106.4z"/>
	<circle class="st0" cx="90.3" cy="534.4" r="4.3"/>
	<line class="st17" x1="88.1" y1="580.1" x2="88.1" y2="585.8"/>
	<line class="st17" x1="91.5" y1="589.1" x2="123.6" y2="589.1"/>
	<circle class="st11" cx="42.1" cy="626.1" r="6.9"/>
	<path class="st12" d="M29.9,645.8l9.9,4.4c2.5,1.1,3.6,4,2.5,6.5L29,686.3l5.2,2.3c2.6,1.2,3.8,4.2,2.6,6.8l-3.7,8.4L8.8,693
		c-2.4-1.1-3.5-3.9-2.4-6.4l17.1-38.4C24.5,645.8,27.4,644.7,29.9,645.8z"/>
	<path class="st11" d="M24,643.1l6.5,2.9c2.5,1.1,3.6,4,2.5,6.5l-13.2,29.7l3,1.4c2.6,1.2,3.8,4.2,2.6,6.8l-3.7,8.4l-18.8-8.4
		c-2.4-1.1-3.5-3.9-2.4-6.4l17.1-38.4C18.6,643.1,21.5,642,24,643.1z"/>
	<path class="st19" d="M15.3,650.6l2.5,1.1c2.4,1.1,3.5,3.9,2.4,6.3l-9.7,21.7"/>

		<ellipse transform="matrix(0.4072 -0.9134 0.9134 0.4072 -614.5547 412.5627)" class="st12" cx="10.5" cy="679.7" rx="3.3" ry="3.3"/>
	<path class="st2" d="M0.6,683.6L0.4,684c-1.1,2.4,0,5.3,2.4,6.4l18.8,8.4l2.1-4.8L0.6,683.6z"/>

		<rect x="25.8" y="692.6" transform="matrix(0.4072 -0.9134 0.9134 0.4072 -621.4752 440.2852)" class="st0" width="5.2" height="12.5"/>

		<ellipse transform="matrix(0.4072 -0.9134 0.9134 0.4072 -590.1903 424.9294)" class="st11" cx="32.2" cy="667.1" rx="2.3" ry="2.3"/>

		<ellipse transform="matrix(0.4072 -0.9134 0.9134 0.4072 -598.3906 426.2224)" class="st11" cx="29.1" cy="674.1" rx="2.3" ry="2.3"/>

		<ellipse transform="matrix(0.4072 -0.9134 0.9134 0.4072 -581.99 423.6364)" class="st11" cx="35.3" cy="660.1" rx="2.3" ry="2.3"/>
	<g>
		<path class="st15" d="M32,573.3c-4.2,0-7.5-3.4-7.5-7.5v-34.5c0-4.2,3.4-7.5,7.5-7.5s7.5,3.4,7.5,7.5v34.5
			C39.5,569.9,36.1,573.3,32,573.3z"/>
	</g>
	<circle class="st11" cx="32" cy="531.8" r="4.5"/>
	<path class="st17" d="M32,531.8v12.3c0,2.9,2.4,5.3,5.3,5.3h2.2"/>
	<path class="st16" d="M32,558.4c4.2,0,7.5,3.4,7.5,7.5v-5.7c0-4.2-3.4-7.5-7.5-7.5s-7.5,3.4-7.5,7.5v5.7
		C24.4,561.8,27.8,558.4,32,558.4z"/>
	<path class="st16" d="M67.8,601.7c-2.9,2.9-7.7,2.9-10.7,0l4,4c2.9,2.9,7.7,2.9,10.7,0c2.9-2.9,2.9-7.7,0-10.7l-4-4
		C70.7,594,70.7,598.7,67.8,601.7z"/>
	<g>
		<path class="st15" d="M67.8,601.7c-2.9,2.9-7.7,2.9-10.7,0l-30.5-30.6c-2.9-2.9-2.9-7.7,0-10.7s7.7-2.9,10.7,0L67.8,591
			C70.7,594,70.7,598.7,67.8,601.7z"/>
	</g>
	<circle class="st11" cx="32.2" cy="566.3" r="4.2"/>
	<line class="st17" x1="32.2" y1="566.3" x2="67.8" y2="601.7"/>
	<g>
		<path class="st12" d="M75.4,605.6l-2.4-2.3c-1-0.9-2.5-0.9-3.4,0h0c-0.9,1-0.9,2.5,0,3.4l8.8,8.6c1.7,1.6,3.9,2.6,6.3,2.5l9.9-0.1
			c0.9,0,1.4-1.1,0.7-1.7l-0.9-1c-1.8-1.9-4.3-3-6.9-2.8l-1.7,0.1c-1.1,0.1-2.2-0.4-2.9-1.2l-2.6-2.7l2.5-0.4c1-0.2,1.5-1.3,1-2.2
			l0,0c-0.3-0.5-0.8-0.8-1.4-0.7C80.4,605.2,75.4,605.6,75.4,605.6z"/>
		<path class="st11" d="M80,613.8c1.3,1.2,3,1.9,4.7,1.8l10.3-0.2l-0.4-0.5c0,0-0.1-0.1-0.1-0.1l-9.7,0.2c-1.6,0.1-3.2-0.6-4.3-1.7
			l-5.5-5.4l9.2-1.2c0-0.2,0-0.4,0-0.6l-9.7,1.3l0,0l-4.5-4.4c-0.1,0.1-0.2,0.1-0.2,0.2c-0.1,0.1-0.1,0.2-0.2,0.2L80,613.8z"/>
	</g>
</g>
<line class="st20" x1="11.9" y1="703.8" x2="150.8" y2="703.8"/>
<g>
	<g>
		<path class="st16" d="M533.8,154.5c3.9,2.8,9.3,1.8,12.1-2.1l-3.8,5.4c-2.8,3.9-8.2,4.9-12.1,2.1s-4.9-8.2-2.1-12.1l3.8-5.4
			C529,146.3,529.9,151.7,533.8,154.5z"/>
		<path class="st12" d="M530.2,164.1l2.3-3.1c0.9-1.2,0.7-3-0.6-3.9l0,0c-1.2-0.9-3-0.7-3.9,0.6l-8.4,11.4c-1.6,2.2-2.3,4.9-1.9,7.6
			l1.8,11.3c0.2,1,1.5,1.4,2.1,0.6l0.9-1.2c1.9-2.3,2.7-5.4,2.1-8.4l-0.4-1.9c-0.2-1.2,0.1-2.5,0.9-3.5l2.7-3.4l0.9,2.8
			c0.4,1.1,1.7,1.5,2.7,0.8l0,0c0.5-0.4,0.7-1.1,0.6-1.7C531.4,169.7,530.2,164.1,530.2,164.1z"/>
		<path class="st11" d="M521.6,170.6c-1.2,1.6-1.7,3.7-1.3,5.7l1.9,11.7l0.5-0.6c0-0.1,0.1-0.1,0.1-0.2l-1.8-11.1
			c-0.3-1.8,0.1-3.7,1.2-5.2l5.3-7.1l2.9,10.3c0.2,0,0.5,0,0.7-0.1l-3-10.9l0,0l4.3-5.8c-0.1-0.1-0.2-0.2-0.3-0.2
			c-0.1-0.1-0.2-0.1-0.3-0.2L521.6,170.6z"/>
		<path class="st15" d="M567.5,115.4c4.8,0,8.7-3.9,8.7-8.7V66.9c0-4.8-3.9-8.7-8.7-8.7s-8.7,3.9-8.7,8.7v39.8
			C558.8,111.5,562.7,115.4,567.5,115.4z"/>
		<path class="st16" d="M567.5,98.2c-4.8,0-8.7,3.9-8.7,8.7v-6.6c0-4.8,3.9-8.7,8.7-8.7s8.7,3.9,8.7,8.7v6.6
			C576.1,102.1,572.3,98.2,567.5,98.2z"/>
		<path class="st15" d="M533.8,154.5c3.9,2.8,9.3,1.8,12.1-2.1l28.6-40.7c2.8-3.9,1.8-9.3-2.1-12.1c-3.9-2.8-9.3-1.8-12.1,2.1
			l-28.6,40.7C529,146.3,529.9,151.7,533.8,154.5z"/>

			<ellipse transform="matrix(0.9853 -0.1709 0.1709 0.9853 -9.9937 98.493)" class="st11" cx="567.2" cy="107.3" rx="4.9" ry="4.9"/>
		<line class="st17" x1="567.2" y1="107.3" x2="533.8" y2="154.5"/>
	</g>
	<polyline class="st21" points="573.2,133.6 545.8,148.8 548.9,182.4 	"/>
	<ellipse transform="matrix(0.4063 -0.9137 0.9137 0.4063 188.5233 586.9921)" class="st11" cx="546" cy="148.4" rx="8" ry="8"/>
	<path class="st12" d="M549.6,174.8l-12.5,0c-3.1,0-5.6,2.5-5.6,5.6l0,37.5l-6.5,0c-3.3,0-6,2.7-6,6l0,10.5l30.6,0
		c3.1,0,5.6-2.5,5.6-5.6l0-48.4C555.2,177.3,552.7,174.8,549.6,174.8z"/>
	<path class="st11" d="M557.1,174.8l-8.2,0c-3.1,0-5.6,2.5-5.6,5.6l0,37.5l-3.8,0c-3.3,0-6,2.7-6,6l0,10.5l23.7,0
		c3.1,0,5.6-2.5,5.6-5.6l0-48.4C562.7,177.3,560.2,174.8,557.1,174.8z"/>
	<path class="st19" d="M562.7,186.7l-3.1,0c-3,0-5.5,2.5-5.5,5.5l0,27.4"/>
	<circle class="st12" cx="554.1" cy="219.6" r="3.8"/>
	<circle class="st11" cx="537.1" cy="196.2" r="2.7"/>
	<circle class="st11" cx="537.1" cy="205" r="2.7"/>
	<circle class="st11" cx="537.1" cy="187.4" r="2.7"/>
	<circle class="st11" cx="569.1" cy="64.9" r="5.2"/>
	<path class="st11" d="M650.9,133.6c0-5.7-4.6-10.4-10.4-10.4h22.8c5.7,0,10.4,4.6,10.4,10.4c0,5.7-4.6,10.4-10.4,10.4h-22.8
		C646.3,144,650.9,139.3,650.9,133.6z"/>
	<path class="st12" d="M575.8,144h65.5c5.3,0,9.6-4.3,9.6-9.6v-1.5c0-5.3-4.3-9.6-9.6-9.6h-65.5c-5.3,0-9.6,4.3-9.6,9.6v1.5
		C566.2,139.7,570.5,144,575.8,144z"/>
	<line class="st17" x1="650.9" y1="133.6" x2="611" y2="133.6"/>
	<circle class="st17" cx="607.2" cy="133.6" r="3.9"/>
	<line class="st17" x1="607.2" y1="137.5" x2="607.2" y2="144"/>
	<path class="st12" d="M601.1,32h24c8.8,0,16-7.2,16-16v0c0-8.8-7.2-16-16-16l-24,0c-8.8,0-16,7.2-16,16v0
		C585.1,24.8,592.2,32,601.1,32"/>
	<path class="st15" d="M587.8,24.7h28.3c4.5,0,8.1-3.6,8.1-8.1v-1.3c0-4.5-3.6-8.1-8.1-8.1h-28.3c-4.5,0-8.1,3.6-8.1,8.1v1.3
		C579.7,21.1,583.3,24.7,587.8,24.7z"/>
	<circle class="st11" cx="640.9" cy="16" r="5.6"/>

		<rect x="605.2" y="104.6" transform="matrix(-1 -4.517865e-11 4.517865e-11 -1 1227.3367 227.8018)" class="st15" width="17" height="18.6"/>
	<rect x="622.2" y="104.6" class="st16" width="5.7" height="18.6"/>
	<g>
		<path class="st11" d="M660.2,59.2v-2.6c0-4.9-4-8.9-8.9-8.9h23.9c4.9,0,8.9,4,8.9,8.9v2.6c0,25.1-20.3,45.4-45.4,45.4h-23.9
			c0,0,0,0,0,0C639.9,104.6,660.2,84.2,660.2,59.2z"/>
		<path class="st12" d="M593.1,104.6h23c24.3,0,44.1-19.7,44.1-44.1v-4.2c0-4.8-3.9-8.7-8.7-8.7h-93.8c-4.8,0-8.7,3.9-8.7,8.7v4.2
			C549,84.8,568.7,104.6,593.1,104.6z"/>
	</g>
	<circle class="st2" cx="604.6" cy="70.5" r="7.7"/>
	<path class="st11" d="M586.1,58.8V47.6h0.7v18.5c0,9.8,8,17.8,17.8,17.8c9.8,0,17.8-8,17.8-17.8V47.6h0.7v11.2h37.1v0.7h-37.1v6.6
		c0,10.1-8.1,18.3-18.2,18.5v20h-0.7v-20c-10.1-0.2-18.2-8.4-18.2-18.5v-6.6H549v-0.7H586.1z"/>
	<circle class="st0" cx="604.6" cy="70.5" r="4.9"/>
	<line class="st17" x1="607.2" y1="123.2" x2="607.2" y2="129.7"/>
	<line class="st17" x1="603.3" y1="133.6" x2="566.2" y2="133.6"/>
	<path class="st15" d="M671.9,115.4c4.8,0,8.7-3.9,8.7-8.7V66.9c0-4.8-3.9-8.7-8.7-8.7c-4.8,0-8.7,3.9-8.7,8.7v39.8
		C663.2,111.5,667.1,115.4,671.9,115.4z"/>
	<circle class="st11" cx="671.9" cy="67.6" r="5.2"/>
	<path class="st17" d="M671.9,67.6v14.2c0,3.4-2.7,6.1-6.1,6.1h-2.5"/>
	<path class="st16" d="M671.9,98.2c-4.8,0-8.7,3.9-8.7,8.7v-6.6c0-4.8,3.9-8.7,8.7-8.7s8.7,3.9,8.7,8.7v6.6
		C680.5,102.1,676.6,98.2,671.9,98.2z"/>
	<polyline class="st21" points="639.1,133.6 615.6,148.2 614.8,182.4 	"/>
	<ellipse transform="matrix(0.4063 -0.9137 0.9137 0.4063 229.9465 650.748)" class="st11" cx="615.8" cy="148.4" rx="8" ry="8"/>
	<path class="st12" d="M615.5,174.8l-12.5,0c-3.1,0-5.6,2.5-5.6,5.6l0,37.5l-6.5,0c-3.3,0-6,2.7-6,6l0,10.5l30.6,0
		c3.1,0,5.6-2.5,5.6-5.6l0-48.4C621.1,177.3,618.6,174.8,615.5,174.8z"/>
	<path class="st11" d="M623,174.8l-8.2,0c-3.1,0-5.6,2.5-5.6,5.6l0,37.5l-3.8,0c-3.3,0-6,2.7-6,6l0,10.5l23.7,0
		c3.1,0,5.6-2.5,5.6-5.6l0-48.4C628.6,177.3,626.1,174.8,623,174.8z"/>
	<path class="st19" d="M628.6,186.7l-3.1,0c-3,0-5.5,2.5-5.5,5.5l0,27.4"/>
	<circle class="st12" cx="620" cy="219.6" r="3.8"/>
	<circle class="st11" cx="603.1" cy="196.2" r="2.7"/>
	<circle class="st11" cx="603.1" cy="205" r="2.7"/>
	<circle class="st11" cx="603.1" cy="187.4" r="2.7"/>
	<path class="st16" d="M630.5,148.1c3.4,3.4,8.9,3.4,12.3,0l-4.7,4.7c-3.4,3.4-8.9,3.4-12.3,0c-3.4-3.4-3.4-8.9,0-12.3l4.7-4.7
		C627.2,139.2,627.2,144.7,630.5,148.1z"/>
	<path class="st15" d="M630.6,148.1c3.4,3.4,8.9,3.4,12.3,0l35.2-35.3c3.4-3.4,3.4-8.9,0-12.3c-3.4-3.4-8.9-3.4-12.3,0l-35.2,35.3
		C627.2,139.2,627.2,144.7,630.6,148.1z"/>
	<circle class="st11" cx="671.5" cy="107.3" r="4.9"/>
	<line class="st17" x1="671.5" y1="107.3" x2="630.6" y2="148.1"/>
	<path class="st12" d="M621.7,152.6l2.7-2.7c1.1-1.1,2.9-1.1,3.9,0l0,0c1.1,1.1,1.1,2.9,0,3.9l-10.1,10c-1.9,1.9-4.5,2.9-7.2,2.9
		l-11.4-0.2c-1,0-1.6-1.2-0.9-2l1-1.1c2-2.2,5-3.4,8-3.3l1.9,0.1c1.3,0.1,2.5-0.4,3.4-1.3l3-3.1l-2.9-0.5c-1.2-0.2-1.8-1.5-1.2-2.5
		l0,0c0.3-0.6,1-0.9,1.6-0.8C616,152.1,621.7,152.6,621.7,152.6z"/>
	<path class="st11" d="M616.5,162c-1.4,1.4-3.4,2.2-5.5,2.1l-11.9-0.2l0.5-0.5c0.1-0.1,0.1-0.1,0.2-0.2l11.2,0.2
		c1.8,0.1,3.6-0.6,5-1.9l6.3-6.2l-10.6-1.4c0-0.2,0-0.5,0-0.7l11.2,1.5l0,0l5.1-5c0.1,0.1,0.2,0.1,0.3,0.2c0.1,0.1,0.1,0.2,0.2,0.3
		L616.5,162z"/>
	<path class="st1" d="M586.6,19.1h22.2c1.6,0,2.9-1.3,2.9-2.9v-0.5c0-1.6-1.3-2.9-2.9-2.9h-22.2c-1.6,0-2.9,1.3-2.9,2.9v0.5
		C583.7,17.8,585,19.1,586.6,19.1z"/>
	<path class="st0" d="M621.1,229.7c-0.4,2.7-2.7,4.8-5.5,4.8l-30.6,0l0-4.8H621.1z"/>
	<path class="st2" d="M628.6,229.7c-0.4,2.7-2.7,4.8-5.5,4.8l-23.7,0l0-4.8H628.6z"/>
	<path class="st0" d="M555.2,229.7c-0.4,2.7-2.7,4.8-5.5,4.8l-30.6,0l0-4.8H555.2z"/>
	<path class="st2" d="M562.7,229.7c-0.4,2.7-2.7,4.8-5.5,4.8l-23.7,0l0-4.8H562.7z"/>
</g>
<path class="st0" d="M799.8,303.3h-76.6c-20.7,0-37.5,16.8-37.5,37.5v76.6c0,20.7,16.8,37.5,37.5,37.5h76.6
	c20.7,0,37.5-16.8,37.5-37.5v-76.6C837.3,320.1,820.5,303.3,799.8,303.3z"/>
<path class="st2" d="M799.1,413.8h-17.3c-1.8,0-3.3-1.5-3.3-3.3l0-11.1c0-1.7,1.4-3.1,3.1-3.1h9.6c7.3,0,13.3-5.9,13.3-13.3v-1.7
	h3.2c1.1,0,1.7-1.2,1-2.1c-2.4-3.3-4.3-7-4.3-11.2v-12.3c3.6-1.7,6.2-5.3,6.2-9.6v-3.7c0-6.5-5.3-11.8-11.8-11.8h-46.5
	c-7,0-13.2,4.5-15.4,11.1l-5.3,15.8h-2.6c-7-7-18.4-7-25.4,0l-0.4,0.4c-7.1,8.8-10.7,19.8-10.1,31c0,0.5,0.1,0.9,0.1,1.4
	c1,11.7,7.5,22.2,17.2,28.8c-3.5,3.5-5.7,8.3-5.7,13.6v17c5.5,3.1,11.8,4.9,18.5,4.9h76.6c6.7,0,13-1.8,18.5-4.9v-17
	C818.2,422.4,809.7,413.8,799.1,413.8z M744.5,406.8l-0.8-0.8c-2.4-2.5-5-4.9-7.6-7.2l-7.2-6.1c-7.9-6.7-9.1-18.4-2.5-26.4h2.5
	l-0.6,1.9c-2.5,7.4-0.5,15.5,4.9,21c2.5,2.5,8.1,4.9,11.4,4.1L744.5,406.8z"/>
<circle class="st14" cx="825.6" cy="313.6" r="17.3"/>
<g>
	<line class="st22" x1="819.8" y1="307.8" x2="831.3" y2="319.3"/>
	<line class="st22" x1="831.3" y1="307.8" x2="819.8" y2="319.3"/>
</g>
<path class="st14" d="M199.9,280.5h-58.2c-4.4,0-8,3.6-8,8V372c0,4.4,3.6,8,8,8h58.2c4.4,0,8-3.6,8-8v-83.5
	C207.9,284.1,204.3,280.5,199.9,280.5z"/>
<g>
	<polygon class="st1" points="182,322.3 182,317.8 158.6,317.8 158.6,322.3 153.8,322.3 153.8,336.1 158.6,336.1 158.6,345.2
		163.2,345.2 163.2,340.7 167.8,340.7 167.8,345.2 172.8,345.2 172.8,340.7 177.4,340.7 177.4,345.2 182,345.2 182,336.1
		186.8,336.1 186.8,322.3 	"/>
	<rect x="158.6" y="326.9" class="st14" width="9.2" height="4.6"/>
	<rect x="172.8" y="326.9" class="st14" width="9.2" height="4.6"/>
	<polygon class="st1" points="153.8,308.2 149.2,308.2 149.2,312.8 144.6,312.8 144.6,317.4 153.8,317.4 153.8,317.4 153.8,317.4
		"/>
	<polygon class="st1" points="196,317.4 196,312.8 191.4,312.8 191.4,308.2 186.8,308.2 186.8,317.4 186.8,317.4 186.8,317.4 	"/>
	<polygon class="st1" points="186.8,349.9 191.4,349.9 191.4,345.2 196,345.2 196,340.7 186.8,340.6 186.8,340.7 186.8,340.7 	"/>
	<polygon class="st1" points="144.6,340.7 144.6,345.2 149.2,345.2 149.2,349.9 153.8,349.9 153.8,340.7 153.8,340.7 153.8,340.6
		"/>
</g>
<path class="st1" d="M242.9,162.4c-0.2-1.2-0.3-2.3-0.3-3.6c0-13,9.5-23.8,21.9-25.8c2.1-14.4,14.4-25.4,29.3-25.4
	c10.8,0,20.3,5.8,25.5,14.5c2.8-2.2,6.3-3.6,10.1-3.6c2,0,3.9,0.4,5.7,1.1c0-0.3,0-0.7,0-1c0-26,21.1-47.1,47.1-47.1
	c23.4,0,42.8,17.1,46.4,39.4c20.8,1.4,37.3,18.7,37.3,39.8c0,4-0.6,7.9-1.7,11.6H242.9z"/>
<path class="st1" d="M660.1,251.7c-0.2-1.2-0.3-2.3-0.3-3.6c0-13,9.5-23.8,21.9-25.8c2.1-14.4,14.4-25.4,29.3-25.4
	c10.8,0,20.3,5.8,25.5,14.5c2.8-2.2,6.3-3.6,10.1-3.6c2,0,3.9,0.4,5.7,1.1c0-0.3,0-0.7,0-1c0-26,21.1-47.1,47.1-47.1
	c23.4,0,42.8,17.1,46.4,39.4c20.8,1.4,37.3,18.7,37.3,39.8c0,4-0.6,7.9-1.7,11.6H660.1z"/>
</svg>
