<!-- Generator: Adobe Illustrator 20.1.0, SVG Export Plug-In  -->
<svg version="1.1"
	 xmlns="http://www.w3.org/2000/svg" xmlns:xlink="http://www.w3.org/1999/xlink" xmlns:a="http://ns.adobe.com/AdobeSVGViewerExtensions/3.0/"
	 x="0px" y="0px" width="1098.6px" height="712.9px" viewBox="0 0 1098.6 712.9" style="enable-background:new 0 0 1098.6 712.9;"
	 xml:space="preserve">
<style type="text/css">
	.st0{opacity:0.3;fill:#0075EA;}
	.st1{fill:#E6F4FF;}
	.st2{fill:#333231;}
	.st3{fill:#55ACEE;}
	.st4{fill:#FFFFFF;}
	.st5{fill:#3B5998;}
	.st6{opacity:0.1;}
	.st7{fill:#FFFFFF;stroke:#5B5B5B;stroke-miterlimit:10;}
	.st8{fill:#FBBB00;}
	.st9{fill:#518EF8;}
	.st10{fill:#28B446;}
	.st11{fill:#F14336;}
	.st12{fill:#045084;}
	.st13{fill:#283338;}
	.st14{fill:#0462AF;}
	.st15{fill:#0075EA;}
	.st16{fill:#FFC4AF;}
	.st17{fill:#FF5824;}
	.st18{fill:#4A94A5;}
	.st19{fill:#F0F2F5;}
	.st20{fill:#70B4C7;}
	.st21{fill:none;stroke:#515151;stroke-width:3;stroke-linecap:round;stroke-linejoin:round;stroke-miterlimit:10;}
	.st22{fill:#EDA994;}
	.st23{opacity:0.2;fill:#0075EA;}
	.st24{fill:#173355;}
	.st25{fill:#FF7B4E;}
	.st26{fill:#FFD853;}
	.st27{fill:#00C6DB;}
	.st28{opacity:0.1;fill:#0075EA;}
	.st29{fill:#06C678;}
	.st30{fill:#FC3232;}
	.st31{fill:none;stroke:#FFFFFF;stroke-width:2;stroke-linecap:round;stroke-linejoin:round;stroke-miterlimit:10;}
	.st32{fill:#5B5B5B;}
	.st33{fill:#8062EF;}
	.st34{fill:#5B26ED;}
	.st35{fill:#F97615;}
	.st36{fill:#394347;}
	.st37{fill:#283133;}
	.st38{fill:none;stroke:#F97615;stroke-miterlimit:10;}
	.st39{fill:#FFA669;}
	.st40{fill:none;stroke:#394347;stroke-width:6;stroke-linecap:round;stroke-linejoin:round;stroke-miterlimit:10;}
	.st41{fill:none;stroke:#FFA669;stroke-miterlimit:10;}
	.st42{fill:#FFE8D9;}
	.st43{fill:none;stroke:#F97615;stroke-width:4;stroke-miterlimit:10;}
	.st44{fill:#353535;}
	.st45{fill:none;stroke:#515151;stroke-width:3;stroke-miterlimit:10;}
	.st46{fill:none;stroke:#F97615;stroke-width:3;stroke-linecap:round;stroke-linejoin:round;stroke-miterlimit:10;}
</style>
<defs>
</defs>
<path class="st0" d="M636.6,444.3H597h-50.4v44.5c0.1,0,0.2,0,0.3,0h0c25.9,0,47.3,19.6,50,44.8v84.8h0.3h39h0.3v-84.8
	c2.8-25.2,24.1-44.8,50-44.8h0c27.8,0,50.3,22.5,50.3,50.3v79.3h35.4v-79.3c0-27.8,22.5-50.3,50.3-50.3h0
	c27.8,0,50.3,22.5,50.3,50.3v79.3h35.4v-79.3c0-27.8,22.5-50.3,50.3-50.3h0c27.8,0,50.3,22.5,50.3,50.3v79.3h0.9h38.4h0.9v-79.3
	c0-27.5,22-49.8,49.3-50.3v-44.5H636.6z"/>
<rect x="416.7" y="206.7" class="st1" width="552" height="36.1"/>
<g>
	<path class="st2" d="M840.8,408.3h-3.9V311c0-1.1,0.9-2,2-2l0,0c1.1,0,2,0.9,2,2V408.3z"/>
	<g>
		<circle class="st3" cx="838.8" cy="331.9" r="19.8"/>
		<g>
			<g>
				<g>
					<path class="st4" d="M848.1,326.1c-0.7,0.3-1.4,0.5-2.2,0.6c0.8-0.5,1.4-1.2,1.7-2.1c-0.7,0.4-1.5,0.8-2.4,0.9
						c-0.7-0.7-1.7-1.2-2.8-1.2c-2.1,0-3.8,1.7-3.8,3.8c0,0.3,0,0.6,0.1,0.9c-3.2-0.2-6-1.7-7.8-4c-0.3,0.6-0.5,1.2-0.5,1.9
						c0,1.3,0.7,2.5,1.7,3.2c-0.6,0-1.2-0.2-1.7-0.5c0,0,0,0,0,0c0,1.8,1.3,3.4,3,3.7c-0.3,0.1-0.7,0.1-1,0.1c-0.2,0-0.5,0-0.7-0.1
						c0.5,1.5,1.9,2.6,3.5,2.6c-1.3,1-2.9,1.6-4.7,1.6c-0.3,0-0.6,0-0.9-0.1c1.7,1.1,3.7,1.7,5.8,1.7c7,0,10.8-5.8,10.8-10.8
						c0-0.2,0-0.3,0-0.5C846.9,327.6,847.6,326.9,848.1,326.1L848.1,326.1z"/>
				</g>
			</g>
		</g>
	</g>
</g>
<g>
	<path class="st2" d="M928.2,408.3h-3.9V311c0-1.1,0.9-2,2-2l0,0c1.1,0,2,0.9,2,2V408.3z"/>
	<g>
		<circle class="st5" cx="926.3" cy="331.9" r="19.8"/>
		<g>
			<path class="st4" d="M929.9,331.9h-2.3v8.6H924v-8.6h-1.7v-3h1.7v-2c0-1.4,0.7-3.6,3.6-3.6l2.6,0v2.9h-1.9
				c-0.3,0-0.8,0.2-0.8,0.8v1.8h2.7L929.9,331.9z"/>
		</g>
	</g>
</g>
<g>
	<path class="st2" d="M1015.7,408.3h-3.9V311c0-1.1,0.9-2,2-2l0,0c1.1,0,2,0.9,2,2V408.3z"/>
	<g>
		<circle class="st4" cx="1013.7" cy="331.9" r="19.8"/>
	</g>
	<g class="st6">
		<circle class="st7" cx="1013.7" cy="331.9" r="19.8"/>
	</g>
	<g>
		<path class="st8" d="M1008.2,334l-0.7,2.6l-2.5,0.1c-0.8-1.4-1.2-3-1.2-4.7c0-1.7,0.4-3.2,1.1-4.6h0l2.3,0.4l1,2.2
			c-0.2,0.6-0.3,1.2-0.3,1.9C1007.8,332.6,1007.9,333.3,1008.2,334z"/>
		<path class="st9" d="M1023.5,330c0.1,0.6,0.2,1.2,0.2,1.9c0,0.7-0.1,1.4-0.2,2.1c-0.5,2.3-1.8,4.3-3.5,5.7l0,0l-2.8-0.1l-0.4-2.5
			c1.2-0.7,2.1-1.8,2.6-3h-5.3V330h5.4H1023.5L1023.5,330z"/>
		<path class="st10" d="M1019.9,339.6L1019.9,339.6c-1.7,1.4-3.9,2.2-6.2,2.2c-3.8,0-7.1-2.1-8.8-5.2l3.2-2.6c0.8,2.2,3,3.8,5.5,3.8
			c1.1,0,2.1-0.3,3-0.8L1019.9,339.6z"/>
		<path class="st11" d="M1020.1,324.2l-3.2,2.6c-0.9-0.6-2-0.9-3.1-0.9c-2.6,0-4.8,1.7-5.6,4l-3.2-2.7h0c1.7-3.2,5-5.4,8.8-5.4
			C1016.1,321.9,1018.3,322.8,1020.1,324.2z"/>
	</g>
</g>
<path class="st12" d="M760,360.2c-2.5-10.1-11.9-34.5-11.9-34.5c0.7,6.5-1.4,17.2-7.3,20.8L740,347l6.1,18.1c1.3,4,2.8,8,4.5,11.8
	l13.3,31.3l7.8-1.9L760,360.2z"/>
<path class="st13" d="M708,408.2l-5,15.3c-0.5,1.5-2,2.3-3.5,2.1l-14.5-2.7c-1.4-0.3-2-2-1.1-3.1l0,0c0.8-0.9,1.9-1.4,3-1.3l6.3,0.2
	c2.2,0.1,4.1-1.5,4.6-3.6l2.1-9.1L708,408.2z"/>
<path class="st13" d="M763.8,408.2l2.2,8c0.4,1.4-0.1,2.9-1.3,3.8l-7.2,4.3c-0.4,0.2-0.7,0.6-0.8,1.1l0,0c-0.4,1.3,0.8,2.6,2.2,2.3
	l13.2-3.1c2.7-0.6,4.3-3.4,3.4-6l-3.8-12.2L763.8,408.2z"/>
<path class="st14" d="M735.7,279.6l11.7,11.9c4.6,4.6,7.6,10.6,8.6,17l4.5,27.4h-4.8l-11.3-32.7l-11.2-12.8L735.7,279.6z"/>
<path class="st14" d="M722.5,321.3h23.3l0.8,1.3c5,8.2,2.4,19-5.8,24l-3.1,1.9c-7.4,4.5-13,11.5-15.9,19.7L708,408.2l-8-2.3
	l3.8-21.3c2-11.1,4.8-22.1,8.4-32.9L722.5,321.3z"/>
<path class="st15" d="M745.8,321.3l-5.5-16.5c-1.1-3.3-1.6-6.9-1-10.3c0.5-3.2,0.3-6.5-0.7-9.7l-2.9-9.9l-21.3,11
	c-1.1,0.5-2.3,0.9-3.5,1c-4.3,0.5-8.7-0.2-12.6-2.1c-4.3-2.1-7.8-5.6-9.9-9.8l-0.6-1.3c-1.6-3.1-2.4-7.7-2.4-11.1v-3.9H679l0.3,8.5
	c0.4,11.1,6.5,21.3,16.1,26.9l0,0c3.2,1.7,6.7,2.6,10.3,2.9l8.8,0.7l4.1,7.1c2.5,4.3,3.9,9.2,3.9,14.2v2.4H745.8z"/>
<path class="st16" d="M713.1,264.9l1.4,9.1c0.4,2.7,2.9,4.5,5.6,4.1l1.1-0.2l-2.1-13.3L713.1,264.9z"/>
<path class="st17" d="M716.2,265.2l-0.6,0.1c-2.2,0.3-4.4-1.2-4.7-3.4l0,0c-0.3-2.2,1.2-4.4,3.4-4.7l7-1.1c5-0.8,9.9,2.1,11.6,6.8v0
	c1.3,3.4,3.4,6.4,6.1,8.8l2.4,2.1c2.8,2.5,3.7,6.6,2.2,10.1l0,0c-1.3,3-4.3,5.1-7.6,5.2l-2.7,0.1c-4.2,0.2-8.1-1.6-10.8-4.8l0,0
	c-1.3-1.5-2.2-3.3-2.7-5.3L716.2,265.2z"/>
<path class="st16" d="M685.3,258.6H679l0.8-5.3c0.2-1.2,1.2-2.2,2.5-2.2l0,0c1.3,0,2.4,1,2.5,2.3L685.3,258.6z"/>
<path class="st16" d="M755.8,335.9h4.8l0.8,3.2c0.3,1.4-0.7,2.7-2.1,2.7l0,0c-1,0-1.8-0.6-2.1-1.5L755.8,335.9z"/>
<path class="st17" d="M671.7,488.7L671.7,488.7c3.2,2,5.4,5.3,6,9.1l5.4,34.7l-13.4-11.8c0,0,0,0,0,0h0l0-18.2l0-2.9h-17.6v2.5v9.3
	c0,2.2,1.8,3.9,3.9,3.9h3.1l-0.1,4.8l0,0.6c0,0,0,0,0,0l-14.7,10.9l-0.5-18.1c-0.3-9.5,4.4-18.4,12.3-23.6l1.4-0.9
	C661.8,486,667.3,486,671.7,488.7z"/>
<path class="st18" d="M587.2,548.5l29.3,5l30.3-28.2l0,0c-1.5,1.7-2.4,3.9-2.5,6.3l-1.1,17.7l-12.8,12.2c-6.4,6.2-16.1,7.6-24.1,3.6
	l-21.5-7.7L587.2,548.5z"/>
<path class="st16" d="M587.2,548.5l-2.4,8.8l-8.9-3.2c-1.8-0.6-2.9-2.4-2.7-4.3v0c0.2-2.5,2.7-4.2,5.1-3.6L587.2,548.5z"/>
<path class="st16" d="M718.4,600.9l-8.2,4.7l0.9,5c0.5,2.8,3.6,4.2,6,2.9l0,0c1.5-0.8,2.4-2.4,2.2-4.1L718.4,600.9z"/>
<polygon class="st14" points="673,573.4 652.9,573.4 647.8,651.8 673,652.1 "/>
<path class="st19" d="M659,520.6c0,2.4,2,4.4,4.4,4.4h1.9c2.4,0,4.4-1.9,4.4-4.4h3.4v52.7h-20.2l3.6-52.7H659z"/>
<path class="st13" d="M645.7,707.3c0.6-0.5,1.3-0.9,2-1.2l9.5-2.8h0l-0.6-2.8h9.1l0.8,6.8c0.3,2.3-1.5,4.3-3.7,4.3h-15.4
	C645.1,711.6,644,708.8,645.7,707.3z"/>
<path class="st13" d="M672.9,707.5c0.6-0.6,1.3-1.1,2.2-1.3l9.3-2.8h0l-0.9-2.8h9.2l1.6,7.8c0.3,1.7-1,3.2-2.7,3.2h-16.9
	C672.5,711.6,671.4,709,672.9,707.5z"/>
<path class="st20" d="M673,520.6v131.5h9.3c6,0,10.8-4.8,10.8-10.8v-12.4c0-17.2-2.5-34.3-7.5-50.8v0c-1.7-5.8-2.2-11.8-1.3-17.8
	l1.6-15.7l14.7,18.9l9.5,42.1l8.2-4.7l-2.6-27.3c-0.8-8.3-3.1-16.4-6.8-23.8l-2.9-5.7C699.6,531.2,687.2,522.5,673,520.6L673,520.6z
	"/>
<path class="st20" d="M656.5,520.6l-8.6,131.1h-1.1c-10.2,0-17.9-9.3-16-19.3l8.5-44.4c1.5-6.2,2.5-12.5,2.9-18.9l2.3-37.6
	c0.1-0.9,0.2-1.7,0.5-2.6c1.5-4.9,6.1-8.1,11.2-8.3L656.5,520.6z"/>
<path class="st16" d="M660.8,657l4.9,43.6h-9.1l-9.6-42.7c-0.3-1.6-0.8-4.1-1-6.2l14.4,0.2C660.4,653.6,660.6,655.3,660.8,657z"/>
<path class="st16" d="M682.8,655.2l9.9,45.4h-9.2l-14.7-47.3c-0.1-0.4-0.2-0.9-0.3-1.4l13.8,0.1
	C682.4,653.1,682.6,654.2,682.8,655.2z"/>
<path class="st17" d="M652.1,499.5l3.2,2.3c3.6,2.6,7.9,4,12.4,4h7.3l-4.6-13.6L652.1,499.5z"/>
<line class="st21" x1="620.5" y1="711.4" x2="719.3" y2="711.4"/>
<path class="st16" d="M669.7,499.5l0,21.2h0c0,2.4-2,4.4-4.4,4.4h-1.9c-2.4,0-4.4-2-4.4-4.4l0.1-5.4H656c-2.2,0-3.9-1.8-3.9-3.9V502
	v-2.5H669.7z"/>
<polygon class="st22" points="659.1,515.2 663.2,515.2 659,520.6 "/>
<g>
	<path class="st1" d="M688,161.5l61.7-11.7c4.7-0.9,8.2-5,8.2-9.8V88.6c0-6.9-6.8-11.8-13.4-9.4L682.8,101c-4,1.4-6.7,5.2-6.7,9.4
		v41.2C676.1,157.9,681.8,162.7,688,161.5z"/>
	<path class="st23" d="M722.6,118.2L752.9,80c-2.4-1.5-5.5-1.9-8.5-0.9L682.8,101c-1.8,0.7-3.4,1.8-4.5,3.3l30.8,16.7
		C713.7,123.5,719.4,122.3,722.6,118.2z"/>
	<path class="st1" d="M659.4,95.6l-38.1,15c-3.4,1.3-7.1-1.2-7.1-4.8v-28c0-1.9,1.1-3.7,2.8-4.6l38.1-19.8c3.4-1.8,7.6,0.7,7.6,4.6
		v32.9C662.7,92.9,661.4,94.9,659.4,95.6z"/>
	<path class="st23" d="M641.9,80.9l18-27.6c-1.4-0.7-3.2-0.8-4.8,0L638.5,62L617,73.2c-0.8,0.4-1.5,1.1-2,1.8l13.6,8.8
		C633,86.7,639,85.4,641.9,80.9z"/>
	<path class="st1" d="M657.5,220.2l-49.1-0.2c-2.8,0-5.1-2.3-5.1-5.2v-32.9c0-2.6,1.9-4.7,4.4-5.1l49.1-6.9c3.1-0.4,5.9,2,5.9,5.1
		v40C662.7,217.9,660.4,220.2,657.5,220.2z"/>
	<path class="st23" d="M636,193.3l24.6-22.4c-1.1-0.8-2.4-1.2-3.8-1l-49.1,6.9c-1.3,0.2-2.4,0.8-3.2,1.7l17,14.9
		C625.7,197.1,631.9,197.1,636,193.3z"/>
</g>
<path class="st1" d="M227.7,588.2l293.5,113c12.2,4.7,25.3-4.3,25.3-17.4v-622c0-13.3-13.5-22.3-25.8-17.2L227.2,166.8
	c-6.9,2.9-11.5,9.7-11.5,17.2v386.7C215.7,578.5,220.5,585.4,227.7,588.2z"/>
<path class="st24" d="M215.7,203.7L546.5,86.6V61.8c0-13.3-13.5-22.3-25.8-17.2L227.2,166.8c-6.9,2.9-11.5,9.7-11.5,17.2V203.7z"/>
<path class="st25" d="M528.9,66.6c0,4-2.1,8-4.7,8.9c-2.6,0.9-4.6-1.4-4.6-5.3s2.1-7.9,4.6-8.9C526.8,60.3,528.9,62.7,528.9,66.6z"
	/>
<path class="st26" d="M512.7,73.1c0,4-2.1,8-4.7,8.9c-2.6,0.9-4.6-1.4-4.6-5.3c0-3.9,2.1-7.9,4.6-8.9
	C510.6,66.8,512.7,69.2,512.7,73.1z"/>
<path class="st27" d="M496.6,79.6c0,4-2.1,8-4.7,8.9c-2.6,0.9-4.6-1.4-4.6-5.3c0-3.9,2.1-7.9,4.6-8.9
	C494.5,73.3,496.6,75.7,496.6,79.6z"/>
<path class="st28" d="M395.1,270.2l103-17.2c8.1-1.4,14.1-8.4,14.1-16.7v-64.5c0-11.3-10.8-19.4-21.6-16.2l-103,30
	c-7.2,2.1-12.2,8.7-12.2,16.2v51.6C375.5,264,384.8,271.9,395.1,270.2z"/>
<path class="st28" d="M495,402.3l-103-2.1c-9.2-0.2-16.5-7.7-16.5-16.9v-52.4c0-8.7,6.5-15.9,15.1-16.8l103-10.7
	c10-1,18.6,6.8,18.6,16.8v65.3C512.2,394.8,504.4,402.5,495,402.3z"/>
<path class="st28" d="M491.9,550.3l-103-21.5c-7.8-1.6-13.4-8.5-13.4-16.5v-52.1c0-9.9,8.4-17.7,18.3-16.8l103,8.6
	c8.8,0.7,15.5,8,15.5,16.8v65C512.2,544.5,502.4,552.5,491.9,550.3z"/>
<path class="st28" d="M312.5,513l-66.8-13.9c-7.8-1.6-13.4-8.5-13.4-16.5V243.7c0-7.5,5-14.1,12.2-16.2l66.8-19.5
	c10.8-3.2,21.6,5,21.6,16.2v272.2C332.9,507.2,323,515.2,312.5,513z"/>
<path class="st23" d="M445.4,109.6L256,179.7c-4.5,1.7-9.2-1.7-9.2-6.4l0,0c0-2.8,1.7-5.3,4.3-6.4l187.7-74.5
	c6-2.4,12.6,2.1,12.6,8.6v0C451.4,104.8,449,108.2,445.4,109.6z"/>
<path class="st23" d="M418,222.9c0,14.3-6.7,26.8-14.8,27.9c-7.9,1.1-14.1-9-14.1-22.6c0-13.6,6.2-26,14.1-27.8
	C411.3,198.6,418,208.6,418,222.9z"/>
<path class="st23" d="M418.6,356.3c0,15.2-7,27.5-15.3,27.5c-8.2,0-14.7-11.7-14.7-26.3s6.5-26.8,14.7-27.5
	C411.7,329.4,418.6,341.1,418.6,356.3z"/>
<path class="st23" d="M418.1,491.4c0,14.6-6.7,25.2-14.8,23.8c-7.9-1.4-14.2-14-14.2-28c0-14,6.3-24.7,14.2-23.8
	C411.4,464.2,418.1,476.8,418.1,491.4z"/>
<path class="st23" d="M491.8,649.1l-252.5-84.2c-4.2-1.4-7-5.3-7-9.7v-12.4c0-6.7,6.4-11.6,12.9-9.9l255.6,69.2
	c6.8,1.8,11.5,8,11.5,15v17.2C512.2,644.9,501.8,652.4,491.8,649.1z"/>
<path class="st29" d="M527.5,299.7c0,13-6.9,24-15.3,24.7c-8.2,0.6-14.7-9-14.7-21.5c0-12.5,6.5-23.5,14.7-24.6
	C520.6,277.1,527.5,286.8,527.5,299.7z"/>
<path class="st30" d="M527.5,454.6c0,13-6.9,22.7-15.3,21.8c-8.2-0.9-14.7-11.8-14.7-24.3c0-12.5,6.5-22.3,14.7-21.9
	C520.6,430.7,527.5,441.6,527.5,454.6z"/>
<path class="st30" d="M526.7,145.2c0,12.3-6.5,24-14.5,26.1c-7.8,2.1-14-5.9-14-17.8c0-11.9,6.2-23.5,14-25.9
	C520.2,125,526.7,132.9,526.7,145.2z"/>
<polyline class="st31" points="505.6,306.4 509.8,312.4 518.9,293.4 "/>
<line class="st31" x1="507.9" y1="157.7" x2="516.6" y2="140.9"/>
<line class="st31" x1="506.9" y1="142.7" x2="517.7" y2="156.2"/>
<line class="st31" x1="507.4" y1="461" x2="517.6" y2="445.6"/>
<line class="st31" x1="507.4" y1="445.6" x2="517" y2="462.1"/>
<path class="st23" d="M491,347.4l-56.6,2.8c-2.5,0.1-4.7-1.9-4.7-4.4v-0.2c0-2.4,1.8-4.3,4.2-4.4l56.6-3.5c2.6-0.2,4.7,1.9,4.7,4.4
	v0.9C495.2,345.3,493.3,347.2,491,347.4z"/>
<path class="st23" d="M490.8,367.8l-56.6,1.3c-2.5,0.1-4.5-2-4.5-4.4v0c0-2.4,1.9-4.4,4.3-4.4l56.6-2c2.5-0.1,4.6,1.9,4.6,4.4v0.7
	C495.2,365.7,493.3,367.7,490.8,367.8z"/>
<path class="st23" d="M484.5,495.2l-51.1-7.1c-2.1-0.3-3.6-2.1-3.6-4.1l0,0c0-2.5,2.2-4.5,4.7-4.1l51.1,6.6c2.1,0.3,3.6,2,3.6,4.1
	v0.6C489.2,493.6,487,495.5,484.5,495.2z"/>
<path class="st23" d="M484.7,513.9l-51.5-8.4c-1.9-0.3-3.3-2-3.3-3.9l0,0c0-2.4,2.1-4.3,4.5-3.9l51.5,7.9c1.9,0.3,3.3,1.9,3.3,3.9
	v0.6C489.2,512.5,487,514.3,484.7,513.9z"/>
<path class="st23" d="M488.5,200.2l-53,12.5c-2.7,0.6-5.3-1.4-5.3-4.2v0c0-2,1.4-3.7,3.3-4.2l53.6-13.3c2.7-0.7,5.4,1.4,5.4,4.2v0
	C492.4,197.5,490.8,199.6,488.5,200.2z"/>
<path class="st23" d="M489,220.9L435,232.2c-2.5,0.5-4.9-1.4-4.9-4v0c0-1.9,1.3-3.6,3.2-4l53.8-11.9c2.7-0.6,5.3,1.5,5.3,4.3v0
	C492.4,218.7,491,220.5,489,220.9z"/>
<polygon class="st32" points="288.3,601.1 288.4,601.2 288.5,601.1 "/>
<path class="st33" d="M218.2,505.1l66.1,15.3c10.3,2.4,20.2-5.5,20.2-16V250.2c0-10.8-10.2-18.7-20.6-15.9l-66.1,17.2
	c-7.3,1.9-12.3,8.4-12.3,15.9V489C205.5,496.7,210.8,503.4,218.2,505.1z"/>
<path class="st34" d="M288,411.9l-68.6-3.1c-3.3-0.1-5.9-2.9-5.9-6.2v0c0-3.5,2.8-6.2,6.3-6.2l68.6,1.4c3.8,0.1,6.8,3.2,6.8,7v0
	C295.3,408.9,292,412.1,288,411.9z"/>
<path class="st34" d="M288.3,434.6l-69.4-5.8c-3-0.3-5.3-2.8-5.3-5.8l0,0c0-3.4,2.8-6,6.2-5.8l69.5,4.5c3.4,0.2,6,3,6,6.4v0
	C295.3,432,292.1,434.9,288.3,434.6z"/>
<path class="st34" d="M271.5,481.3L227,474c-2.8-0.5-4.8-2.9-4.8-5.7v0c0-3.5,3.1-6.2,6.6-5.7l44.5,6.5c2.8,0.4,4.9,2.9,4.9,5.7v0.8
	C278.2,479.2,275,481.9,271.5,481.3z"/>
<path class="st4" d="M268.7,317.9c0,27.8-10.1,50.7-22,51c-11.4,0.4-20.4-20.2-20.4-46s8.9-48.4,20.4-50.8
	C258.6,269.6,268.7,290.1,268.7,317.9z"/>
<path class="st4" d="M651.2,74.1c0.1-1,0.2-1.9,0.2-2.9c0-10.6-7.7-19.4-17.8-21c-1.7-11.7-11.7-20.7-23.9-20.7
	c-8.8,0-16.6,4.7-20.8,11.8c-2.3-1.8-5.1-2.9-8.3-2.9c-1.6,0-3.2,0.3-4.7,0.9c0-0.3,0-0.5,0-0.8C576,17.2,558.8,0,537.6,0
	c-19.1,0-34.9,13.9-37.9,32.2c-17,1.1-30.4,15.2-30.4,32.5c0,3.3,0.5,6.5,1.4,9.4H651.2z"/>
<path class="st4" d="M83.2,272.8c-0.1-1-0.2-1.9-0.2-2.9c0-10.6,7.7-19.4,17.8-21c1.7-11.7,11.7-20.7,23.9-20.7
	c8.8,0,16.6,4.7,20.8,11.8c2.3-1.8,5.1-2.9,8.3-2.9c1.6,0,3.2,0.3,4.7,0.9c0-0.3,0-0.5,0-0.8c0-21.2,17.2-38.4,38.4-38.4
	c19.1,0,34.9,13.9,37.9,32.2c17,1.1,30.4,15.2,30.4,32.5c0,3.3-0.5,6.5-1.4,9.4H83.2z"/>
<g>
	<g>
		<circle class="st35" cx="343.2" cy="538.2" r="4.5"/>
		<g>
			<g>
				<path class="st36" d="M378,519.5c2,3.7,0.6,8.2-3.1,10.2l-30.4,16.4c-3.7,2-8.2,0.6-10.2-3.1c-2-3.7-0.6-8.2,3.1-10.2l30.4-16.4
					C371.5,514.4,376,515.8,378,519.5z"/>
			</g>
			<path class="st37" d="M364.9,526.5c-2-3.7-0.6-8.2,3.1-10.2l-5,2.7c-3.7,2-5,6.5-3.1,10.2s6.5,5,10.2,3.1l5-2.7
				C371.5,531.6,366.9,530.2,364.9,526.5z"/>
			<path class="st37" d="M411.5,491.6c2.6,3.3,2,8-1.3,10.6l4.5-3.5c3.3-2.6,3.8-7.3,1.3-10.6c-2.6-3.3-7.3-3.8-10.6-1.3l-4.5,3.5
				C404.2,487.8,408.9,488.4,411.5,491.6z"/>
			<g>
				<path class="st36" d="M411.5,491.6c2.6,3.3,2,8-1.3,10.6l-34,26.7c-3.3,2.6-8,2-10.6-1.3c-2.6-3.3-2-8,1.3-10.6l34-26.7
					C404.2,487.8,408.9,488.4,411.5,491.6z"/>
			</g>

				<ellipse transform="matrix(0.1187 -0.9929 0.9929 0.1187 -191.0957 830.149)" class="st35" cx="372.1" cy="522.7" rx="4.2" ry="4.2"/>
			<line class="st38" x1="372.1" y1="522.7" x2="411.5" y2="491.6"/>
			<g>
				<path class="st39" d="M419.7,488.1l-2.6,2.1c-1,0.8-2.6,0.7-3.4-0.3l0,0c-0.8-1-0.7-2.6,0.3-3.4l9.5-7.8c1.8-1.5,4.1-2.2,6.5-2
					l9.9,1c0.9,0.1,1.3,1.2,0.6,1.8l-1,0.9c-1.9,1.8-4.6,2.6-7.1,2.2l-1.7-0.2c-1.1-0.1-2.2,0.2-3,0.9l-2.8,2.5l2.4,0.6
					c1,0.3,1.4,1.4,0.8,2.3l0,0c-0.3,0.5-0.9,0.7-1.4,0.6C424.6,488.9,419.7,488.1,419.7,488.1z"/>
				<path class="st35" d="M424.9,480.3c1.4-1.1,3.1-1.6,4.9-1.4l10.2,1.1l-0.5,0.4c0,0-0.1,0.1-0.2,0.1l-9.7-1
					c-1.6-0.2-3.2,0.3-4.4,1.3l-5.9,4.9l9.1,2c0,0.2,0,0.4-0.1,0.6l-9.6-2.1l0,0l-4.8,4c-0.1-0.1-0.1-0.1-0.2-0.2
					c-0.1-0.1-0.1-0.2-0.2-0.3L424.9,480.3z"/>
			</g>
		</g>
		<polyline class="st40" points="330.2,597.9 336.4,632.8 330.2,658.4 		"/>
		<circle class="st35" cx="336.4" cy="632.4" r="6.9"/>
		<path class="st39" d="M329.6,658.3h10.8c2.7,0,4.9,2.2,4.9,4.9v32.5h5.6c2.9,0,5.2,2.3,5.2,5.2v9.1h-26.6c-2.7,0-4.8-2.2-4.8-4.8
			v-42C324.7,660.5,326.9,658.3,329.6,658.3z"/>
		<path class="st35" d="M323.1,658.3h7.1c2.7,0,4.9,2.2,4.9,4.9v32.5h3.3c2.9,0,5.2,2.3,5.2,5.2v9.1H323c-2.7,0-4.8-2.2-4.8-4.8v-42
			C318.2,660.5,320.4,658.3,323.1,658.3z"/>
		<path class="st41" d="M318.2,668.6h2.7c2.6,0,4.8,2.1,4.8,4.8v23.8"/>
		<circle class="st39" cx="325.7" cy="697.2" r="3.3"/>
		<path class="st34" d="M318.2,704.8v0.4c0,2.7,2.2,4.8,4.8,4.8h20.6v-5.2H318.2z"/>
		<rect x="343.6" y="704.8" class="st33" width="12.5" height="5.2"/>
		<circle class="st35" cx="340.4" cy="676.9" r="2.3"/>
		<circle class="st35" cx="340.4" cy="684.5" r="2.3"/>
		<circle class="st35" cx="340.4" cy="669.2" r="2.3"/>
		<path class="st35" d="M266.2,595.5c0-5,4-9,9-9h-19.8c-5,0-9,4-9,9s4,9,9,9h19.8C270.2,604.5,266.2,600.5,266.2,595.5z"/>
		<polyline class="st40" points="258.1,602.2 258.1,632.8 243.8,658.4 		"/>
		<path class="st39" d="M331.8,604.5H274c-4.4,0-7.9-3.5-7.9-7.9v-2.2c0-4.4,3.5-7.9,7.9-7.9h57.8c4.4,0,7.9,3.5,7.9,7.9v2.2
			C339.7,601,336.2,604.5,331.8,604.5z"/>
		<line class="st38" x1="266.2" y1="595.5" x2="300.8" y2="595.5"/>
		<circle class="st38" cx="304.2" cy="595.5" r="3.4"/>
		<line class="st38" x1="304.2" y1="598.8" x2="304.2" y2="604.5"/>
		<path class="st39" d="M309.4,507.3h-20.8c-7.7,0-13.9-6.2-13.9-13.9v0c0-7.7,6.2-13.9,13.9-13.9h20.8c7.7,0,13.9,6.2,13.9,13.9v0
			C323.3,501.1,317.1,507.3,309.4,507.3"/>
		<path class="st36" d="M321.4,501H296c-3.7,0-6.6-3-6.6-6.6v-1.9c0-3.7,3-6.6,6.6-6.6h25.3c3.7,0,6.6,3,6.6,6.6v1.9
			C328,498,325,501,321.4,501z"/>
		<circle class="st35" cx="274.9" cy="493.4" r="4.8"/>
		<path class="st4" d="M321.6,496.1h-19.5c-1.3,0-2.4-1.1-2.4-2.4v-0.7c0-1.3,1.1-2.4,2.4-2.4h19.5c1.3,0,2.4,1.1,2.4,2.4v0.7
			C324,495.1,322.9,496.1,321.6,496.1z"/>
		<g>
			<rect x="291.1" y="570.3" class="st36" width="14.8" height="16.2"/>
			<rect x="286.1" y="570.3" class="st37" width="5" height="16.2"/>
		</g>
		<path class="st35" d="M258.1,530.9v-2.3c0-4.3,3.5-7.8,7.8-7.8h-20.7c-4.3,0-7.8,3.5-7.8,7.8v2.3c0,21.8,17.7,39.4,39.4,39.4h20.7
			c0,0,0,0,0,0C275.8,570.3,258.1,552.7,258.1,530.9z"/>
		<path class="st39" d="M318.4,570.3h-24.1c-20,0-36.2-16.2-36.2-36.2V528c0-3.9,3.2-7.1,7.1-7.1h82.3c3.9,0,7.1,3.2,7.1,7.1v6.2
			C354.6,554.1,338.4,570.3,318.4,570.3z"/>
		<circle class="st34" cx="306.4" cy="540.8" r="6.6"/>
		<path class="st35" d="M322.5,530.6v-9.7h-0.6v16.1c0,8.5-6.9,15.5-15.5,15.5s-15.5-6.9-15.5-15.5v-16.1h-0.6v9.7h-32.2v0.6h32.2
			v5.7c0,8.8,7.1,15.9,15.8,16.1v17.3h0.6V553c8.7-0.2,15.8-7.3,15.8-16.1v-5.7h32.2v-0.6H322.5z"/>
		<circle class="st33" cx="306.4" cy="540.8" r="4.3"/>
		<line class="st38" x1="304.2" y1="586.5" x2="304.2" y2="592.1"/>
		<line class="st38" x1="307.5" y1="595.5" x2="339.7" y2="595.5"/>
		<circle class="st35" cx="258.1" cy="632.4" r="6.9"/>
		<path class="st39" d="M246,652.1l9.9,4.4c2.5,1.1,3.6,4,2.5,6.5l-13.2,29.7l5.2,2.3c2.6,1.2,3.8,4.2,2.6,6.8l-3.7,8.4l-24.3-10.8
			c-2.4-1.1-3.5-3.9-2.4-6.4l17.1-38.4C240.6,652.1,243.5,651,246,652.1z"/>
		<path class="st35" d="M240,649.5l6.5,2.9c2.5,1.1,3.6,4,2.5,6.5l-13.2,29.7l3,1.4c2.6,1.2,3.8,4.2,2.6,6.8l-3.7,8.4l-18.8-8.4
			c-2.4-1.1-3.5-3.9-2.4-6.4l17.1-38.4C234.7,649.5,237.6,648.4,240,649.5z"/>
		<path class="st41" d="M231.4,656.9l2.5,1.1c2.4,1.1,3.5,3.9,2.4,6.3l-9.7,21.7"/>

			<ellipse transform="matrix(0.4072 -0.9134 0.9134 0.4072 -492.2933 613.6767)" class="st39" cx="226.6" cy="686.1" rx="3.3" ry="3.3"/>
		<path class="st34" d="M216.6,690l-0.2,0.3c-1.1,2.4,0,5.3,2.4,6.4l18.8,8.4l2.1-4.8L216.6,690z"/>

			<rect x="241.9" y="699" transform="matrix(0.4072 -0.9134 0.9134 0.4072 -499.2137 641.3991)" class="st33" width="5.2" height="12.5"/>

			<ellipse transform="matrix(0.4072 -0.9134 0.9134 0.4072 -467.9289 626.0433)" class="st35" cx="248.3" cy="673.5" rx="2.3" ry="2.3"/>

			<ellipse transform="matrix(0.4072 -0.9134 0.9134 0.4072 -476.1292 627.3363)" class="st35" cx="245.2" cy="680.4" rx="2.3" ry="2.3"/>

			<ellipse transform="matrix(0.4072 -0.9134 0.9134 0.4072 -459.7285 624.7504)" class="st35" cx="251.4" cy="666.5" rx="2.3" ry="2.3"/>
		<g>
			<path class="st36" d="M248,579.7c-4.2,0-7.5-3.4-7.5-7.5v-34.5c0-4.2,3.4-7.5,7.5-7.5s7.5,3.4,7.5,7.5v34.5
				C255.5,576.3,252.2,579.7,248,579.7z"/>
		</g>
		<circle class="st35" cx="248" cy="538.2" r="4.5"/>
		<path class="st38" d="M248,538.2v12.3c0,2.9,2.4,5.3,5.3,5.3h2.2"/>
		<path class="st37" d="M248,564.8c4.2,0,7.5,3.4,7.5,7.5v-5.7c0-4.2-3.4-7.5-7.5-7.5s-7.5,3.4-7.5,7.5v5.7
			C240.5,568.2,243.8,564.8,248,564.8z"/>
		<path class="st37" d="M283.9,608.1c-2.9,2.9-7.7,2.9-10.7,0l4,4c2.9,2.9,7.7,2.9,10.7,0c2.9-2.9,2.9-7.7,0-10.7l-4-4
			C286.8,600.3,286.8,605.1,283.9,608.1z"/>
		<g>
			<path class="st36" d="M283.9,608.1c-2.9,2.9-7.7,2.9-10.7,0l-30.5-30.6c-2.9-2.9-2.9-7.7,0-10.7c2.9-2.9,7.7-2.9,10.7,0
				l30.5,30.6C286.8,600.3,286.8,605.1,283.9,608.1z"/>
		</g>
		<circle class="st35" cx="248.3" cy="572.7" r="4.2"/>
		<line class="st38" x1="248.3" y1="572.7" x2="283.9" y2="608.1"/>
		<g>
			<path class="st39" d="M291.5,612l-2.4-2.3c-1-0.9-2.5-0.9-3.4,0h0c-0.9,1-0.9,2.5,0,3.4l8.8,8.6c1.7,1.6,3.9,2.6,6.3,2.5l9.9-0.1
				c0.9,0,1.4-1.1,0.7-1.7l-0.9-1c-1.8-1.9-4.3-3-6.9-2.8l-1.7,0.1c-1.1,0.1-2.2-0.4-2.9-1.2l-2.6-2.7l2.5-0.4c1-0.2,1.5-1.3,1-2.2
				l0,0c-0.3-0.5-0.8-0.8-1.4-0.7C296.5,611.6,291.5,612,291.5,612z"/>
			<path class="st35" d="M296,620.2c1.3,1.2,3,1.9,4.7,1.8l10.3-0.2l-0.4-0.5c0,0-0.1-0.1-0.1-0.1l-9.7,0.2
				c-1.6,0.1-3.2-0.6-4.3-1.7l-5.5-5.4l9.2-1.2c0-0.2,0-0.4,0-0.6l-9.7,1.3l0,0l-4.5-4.4c-0.1,0.1-0.2,0.1-0.2,0.2
				c-0.1,0.1-0.1,0.2-0.2,0.2L296,620.2z"/>
		</g>
	</g>
	<line class="st21" x1="200.5" y1="710.4" x2="379.3" y2="710.4"/>
</g>
<g>
	<rect x="102.5" y="489.9" class="st18" width="23.7" height="56.5"/>
	<g>
		<polygon class="st4" points="107.6,415.9 107.6,415.9 107.6,415.9 		"/>
	</g>
	<path class="st16" d="M175.4,380.5l4.2-7.3c0.5-1,1.6-1.5,2.7-1.5h0c2.2,0,3.6,2.2,2.7,4.2l-2,4.6"/>
	<path class="st16" d="M119.7,394.9v6.3c0,0.8-0.7,1.5-1.5,1.5h-0.1c-0.8,0-1.5-0.7-1.5-1.5c0-1.3-1-2.3-2.3-2.3h-1.1
		c-0.9,0-1.6,0.7-1.6,1.6v2.1c0,1.6-0.6,3.2-1.8,4.3l-1.3,1.3v7.7h0c0,2.7,2.2,4.9,4.9,4.9h2.2c2.7,0,4.9-2.2,4.9-4.9l-0.1-6.1h3.5
		c2.4,0,4.4-2,4.4-4.4v-10.5H119.7z"/>
	<polygon class="st4" points="108.5,415.9 108.5,468.6 120.5,468.6 120.5,415.9 	"/>
	<polygon class="st42" points="114.5,415.9 108.5,422 108.5,415.9 	"/>
	<polygon class="st42" points="114.5,415.9 120.5,422 120.5,415.9 	"/>
	<path class="st43" d="M63.5,587.9H42.7v-10.6c0-4.1,3.3-7.4,7.4-7.4h6.1c4.1,0,7.4,3.3,7.4,7.4V587.9z"/>
	<path class="st35" d="M68.3,617.4H30.7c-4.6,0-8.3-3.7-8.3-8.3v-22c0-4.6,3.7-8.3,8.3-8.3h37.6c4.6,0,8.3,3.7,8.3,8.3v22
		C76.5,613.7,72.8,617.4,68.3,617.4z"/>
	<path class="st39" d="M75.5,617.4H37.9c-4.6,0-8.3-3.7-8.3-8.3v-22c0-4.6,3.7-8.3,8.3-8.3h37.6c4.6,0,8.3,3.7,8.3,8.3v22
		C83.8,613.7,80.1,617.4,75.5,617.4z"/>
	<path class="st44" d="M126.5,387.4l-1.5,1.1c-1-1.4-2.9-2-4.5-1.2l-2,0.9c-1.1-1.3-3-1.8-4.6-1.1l-2.9,1.3
		c-1.5,0.6-2.4,2.1-2.4,3.7v16.2l1.3-1.3c1.2-1.2,1.8-2.7,1.8-4.3v-2.1c0-0.9,0.7-1.6,1.6-1.6h1.2c1.3,0,2.2,1.1,2.2,2.4
		c0,0.8,0.7,1.4,1.5,1.4h0.1c0.8,0,1.5-0.7,1.5-1.5v-4.7c0-0.8,0.7-1.5,1.5-1.5h7.1l1.4-5.4C130.2,387.7,128.1,386.2,126.5,387.4z"
		/>
	<g>
		<path class="st14" d="M79.2,604.2"/>
		<path class="st14" d="M145.4,532.1l-5.6-63.5H90.4l1.6,66.7c0.3,5.3-0.1,10.6-1.2,15.8l-11.6,53h11l17.3-55.2
			c1-3.7,1.8-7.5,2.2-11.4l6.4-39.3c0.3-2.8,4.2-2.9,4.7-0.1l6.6,35.3c1.2,6.5,1.4,13.2,0.6,19.8l-6.1,54.9H132l12.1-53.8
			C145.7,547.1,146.1,539.6,145.4,532.1z"/>
	</g>
	<path class="st13" d="M102.4,615c-0.7-1.7-2.1-3.1-3.9-3.7l-9.5-3.1l1.2-4h-11l-1.9,9.6c-0.4,1.9,1.1,3.6,3,3.6h20.5
		C101.9,617.3,102.8,616.1,102.4,615z"/>
	<g>
		<path class="st20" d="M99.7,415.9c-3.4,0-6.8,0.6-9.9,1.8V447l0.5,92.1c0.1,4,3.3,7.2,7.3,7.2h10.9V415.9H99.7z"/>
	</g>
	<g>
		<path class="st20" d="M120.8,418.8C120.8,418.8,120.8,418.8,120.8,418.8C120.8,418.8,120.8,418.8,120.8,418.8z"/>
		<path class="st20" d="M175.4,380.5l-22,35.4l-32.9,0c0,0.1,0,130.5,0,130.5h12c4,0,7.3-3.3,7.3-7.3V432.5l13.5-3.9
			c5.2-1.5,9.5-5.2,11.8-10.1l17.8-38H175.4z"/>
		<path class="st20" d="M108.3,418.8C108.3,418.8,108.3,418.8,108.3,418.8C108.3,418.8,108.3,418.8,108.3,418.8z"/>
	</g>
	<path class="st20" d="M76.8,429.3l-0.2,0.3c-3.2,4.9-5.6,10.2-7.1,15.8c-1.5,5.3-2.2,10.9-2.1,16.4l0.8,36h7.6l3.2-44L89.8,436
		v-18.3C84.5,420.3,80,424.3,76.8,429.3z"/>
	<path class="st16" d="M75.8,497.9l-0.8,6.8c-0.2,1.2-1,2.3-2.2,2.7h0c-2.3,0.8-4.7-0.9-4.6-3.4l0-6.1H75.8z"/>
	<path class="st13" d="M145.7,615c-0.7-1.7-2.1-3.1-3.9-3.7l-9.8-3.1l0.9-4h-10.8l-1,8.4c-0.3,2.5,1.6,4.7,4.1,4.7h18.8
		C145.3,617.3,146.2,616.1,145.7,615z"/>
	<g>
		<path class="st35" d="M45.5,590.2L45.5,590.2c0.8,0,1.5,0.5,1.8,1.2l5.3,12c0.6,1.3-0.4,2.8-1.8,2.8h0c-0.8,0-1.5-0.5-1.8-1.2
			l-5.3-12C43.1,591.6,44.1,590.2,45.5,590.2z"/>
		<path class="st35" d="M54.1,590.2L54.1,590.2c0.8,0,1.5,0.5,1.8,1.2l5.3,12c0.6,1.3-0.4,2.8-1.8,2.8h0c-0.8,0-1.5-0.5-1.8-1.2
			l-5.3-12C51.7,591.6,52.6,590.2,54.1,590.2z"/>
		<path class="st35" d="M62.6,590.2L62.6,590.2c0.8,0,1.5,0.5,1.8,1.2l5.3,12c0.6,1.3-0.4,2.8-1.8,2.8h0c-0.8,0-1.5-0.5-1.8-1.2
			l-5.3-12C60.3,591.6,61.2,590.2,62.6,590.2z"/>
	</g>
	<line class="st21" x1="1.5" y1="618.4" x2="180.3" y2="618.4"/>
	<polygon class="st22" points="120.4,409.8 115.8,409.8 120.5,415.9 	"/>
</g>
<line class="st45" x1="925.2" y1="90" x2="925.2" y2="76.1"/>
<circle class="st35" cx="925.2" cy="76.1" r="5.6"/>
<path class="st46" d="M914.2,58.1c2.6-3.3,6.6-5.4,11.1-5.4c4.3,0,8.2,2,10.8,5.1"/>
<path class="st46" d="M918.8,63.9c1.5-1.9,3.8-3.2,6.5-3.2c2.5,0,4.8,1.2,6.3,3"/>
<circle class="st32" cx="925.2" cy="118.4" r="30.8"/>
<path class="st35" d="M914.5,89.6c-0.7,0.3-1.4,0.6-2.1,0.9c11.3,4.3,19.3,15.2,19.3,28s-8,23.7-19.3,28c0.7,0.3,1.4,0.6,2.1,0.9
	c11.1-4.9,18.8-16,18.8-28.8S925.5,94.5,914.5,89.6z"/>
<path class="st2" d="M900.9,99.5c-4.1,5.2-6.5,11.8-6.5,18.9c0,7.1,2.4,13.7,6.5,18.9c8.8-1.8,15.3-9.6,15.3-18.9
	S909.7,101.3,900.9,99.5z"/>
<polygon class="st4" points="902.8,118.7 716.3,47.2 716.3,198.5 "/>
<polygon class="st4" points="315.8,494 502.3,609 502.3,396.9 "/>
</svg>
