<!-- Generator: Adobe Illustrator 20.1.0, SVG Export Plug-In  -->
<svg version="1.1"
	 xmlns="http://www.w3.org/2000/svg" xmlns:xlink="http://www.w3.org/1999/xlink" xmlns:a="http://ns.adobe.com/AdobeSVGViewerExtensions/3.0/"
	 x="0px" y="0px" width="1393.4px" height="723.2px" viewBox="0 0 1393.4 723.2" style="enable-background:new 0 0 1393.4 723.2;"
	 xml:space="preserve">
<style type="text/css">
	.st0{fill:#E6F4FF;}
	.st1{opacity:0.1;fill:none;stroke:#0075EA;stroke-miterlimit:10;}
	.st2{opacity:0.1;fill:#0075EA;}
	.st3{fill:#173355;}
	.st4{fill:#FF7B4E;}
	.st5{fill:#FFD853;}
	.st6{fill:#00C6DB;}
	.st7{opacity:0.2;fill:#0075EA;}
	.st8{fill:#06C678;}
	.st9{fill:#FC3232;}
	.st10{fill:none;stroke:#FFFFFF;stroke-width:2;stroke-linecap:round;stroke-linejoin:round;stroke-miterlimit:10;}
	.st11{fill:#F97615;}
	.st12{fill:#FFFFFF;}
	.st13{fill:#FFA669;}
	.st14{fill:#8062EF;}
	.st15{fill:#5B26ED;}
	.st16{fill:none;stroke:#515151;stroke-width:3;stroke-miterlimit:10;}
	.st17{fill:none;stroke:#F97615;stroke-width:3;stroke-linecap:round;stroke-linejoin:round;stroke-miterlimit:10;}
	.st18{fill:#5B5B5B;}
	.st19{fill:#333231;}
	.st20{fill:#394347;}
	.st21{fill:#283133;}
	.st22{fill:none;stroke:#F97615;stroke-miterlimit:10;}
	.st23{fill:none;stroke:#394347;stroke-width:6;stroke-linecap:round;stroke-linejoin:round;stroke-miterlimit:10;}
	.st24{fill:none;stroke:#FFA669;stroke-miterlimit:10;}
	.st25{fill:none;stroke:#515151;stroke-width:3;stroke-linecap:round;stroke-linejoin:round;stroke-miterlimit:10;}
	.st26{fill:#4A94A5;}
	.st27{fill:#FFC4AF;}
	.st28{fill:#FFA080;}
	.st29{fill:#FFE8D9;}
	.st30{fill:none;stroke:#F97615;stroke-width:4;stroke-miterlimit:10;}
	.st31{fill:#0462AF;}
	.st32{fill:#283338;}
	.st33{fill:#70B4C7;}
</style>
<defs>
</defs>
<path class="st0" d="M236.6,601.2h438.6c19.3,0,34.9-15.6,34.9-34.9V216.5c0-19.3-15.6-34.9-34.9-34.9H236.6
	c-19.3,0-34.9,15.6-34.9,34.9v349.8C201.7,585.6,217.3,601.2,236.6,601.2z"/>
<path class="st1" d="M260,561h160.3c12,0,21.7-9.7,21.7-21.7v-45c0-12-9.7-21.7-21.7-21.7H260c-12,0-21.7,9.7-21.7,21.7v45
	C238.3,551.2,248,561,260,561z"/>
<path class="st2" d="M491.5,561h160.3c12,0,21.7-9.7,21.7-21.7v-45c0-12-9.7-21.7-21.7-21.7H491.5c-12,0-21.7,9.7-21.7,21.7v45
	C469.7,551.2,479.5,561,491.5,561z"/>
<path class="st0" d="M763.8,598.2l293.5,113c12.2,4.7,25.3-4.3,25.3-17.4v-622c0-13.3-13.5-22.3-25.8-17.2L763.3,176.8
	c-6.9,2.9-11.5,9.7-11.5,17.2v386.7C751.8,588.5,756.6,595.4,763.8,598.2z"/>
<path class="st3" d="M751.8,213.7l330.8-117.2V71.8c0-13.3-13.5-22.3-25.8-17.2L763.3,176.8c-6.9,2.9-11.5,9.7-11.5,17.2V213.7z"/>
<path class="st4" d="M1065,76.6c0,4-2.1,8-4.7,8.9c-2.6,0.9-4.6-1.4-4.6-5.3s2.1-7.9,4.6-8.9C1062.9,70.3,1065,72.7,1065,76.6z"/>
<path class="st5" d="M1048.8,83.1c0,4-2.1,8-4.7,8.9c-2.6,0.9-4.6-1.4-4.6-5.3c0-3.9,2.1-7.9,4.6-8.9
	C1046.7,76.8,1048.8,79.2,1048.8,83.1z"/>
<path class="st6" d="M1032.7,89.6c0,4-2.1,8-4.7,8.9c-2.6,0.9-4.6-1.4-4.6-5.3c0-3.9,2.1-7.9,4.6-8.9
	C1030.6,83.3,1032.7,85.7,1032.7,89.6z"/>
<path class="st2" d="M931.2,280.2l103-17.2c8.1-1.4,14.1-8.4,14.1-16.7v-64.5c0-11.3-10.8-19.4-21.6-16.2l-103,30
	c-7.2,2.1-12.2,8.7-12.2,16.2v51.6C911.6,274,920.9,281.9,931.2,280.2z"/>
<path class="st2" d="M1031.1,412.3l-103-2.1c-9.2-0.2-16.5-7.7-16.5-16.9v-52.4c0-8.7,6.5-15.9,15.1-16.8l103-10.7
	c10-1,18.6,6.8,18.6,16.8v65.3C1048.3,404.8,1040.5,412.5,1031.1,412.3z"/>
<path class="st2" d="M1028,560.3l-103-21.5c-7.8-1.6-13.4-8.5-13.4-16.5v-52.1c0-9.9,8.4-17.7,18.3-16.8l103,8.6
	c8.8,0.7,15.5,8,15.5,16.8v65C1048.3,554.5,1038.5,562.5,1028,560.3z"/>
<path class="st2" d="M848.6,523l-66.8-13.9c-7.8-1.6-13.4-8.5-13.4-16.5V253.7c0-7.5,5-14.1,12.2-16.2l66.8-19.5
	c10.8-3.2,21.6,5,21.6,16.2v272.2C869,517.2,859.1,525.2,848.6,523z"/>
<path class="st7" d="M981.5,119.6l-189.4,70.1c-4.5,1.7-9.2-1.7-9.2-6.4l0,0c0-2.8,1.7-5.3,4.3-6.4l187.7-74.5
	c6-2.4,12.6,2.1,12.6,8.6v0C987.5,114.8,985.1,118.2,981.5,119.6z"/>
<path class="st7" d="M954.1,232.9c0,14.3-6.7,26.8-14.8,27.9c-7.9,1.1-14.1-9-14.1-22.6c0-13.6,6.2-26,14.1-27.8
	C947.4,208.6,954.1,218.6,954.1,232.9z"/>
<path class="st7" d="M954.7,366.3c0,15.2-7,27.5-15.3,27.5c-8.2,0-14.7-11.7-14.7-26.3s6.5-26.8,14.7-27.5
	C947.8,339.4,954.7,351.1,954.7,366.3z"/>
<path class="st7" d="M954.2,501.4c0,14.6-6.7,25.2-14.8,23.8c-7.9-1.4-14.2-14-14.2-28c0-14,6.3-24.7,14.2-23.8
	C947.5,474.2,954.2,486.8,954.2,501.4z"/>
<path class="st7" d="M1027.9,659.1l-252.5-84.2c-4.2-1.4-7-5.3-7-9.7v-12.4c0-6.7,6.4-11.6,12.9-9.9l255.6,69.2
	c6.8,1.8,11.5,8,11.5,15v17.2C1048.3,654.9,1037.9,662.4,1027.9,659.1z"/>
<path class="st8" d="M1063.6,309.7c0,13-6.9,24-15.3,24.7c-8.2,0.6-14.7-9-14.7-21.5c0-12.5,6.5-23.5,14.7-24.6
	C1056.7,287.1,1063.6,296.8,1063.6,309.7z"/>
<path class="st9" d="M1063.6,464.6c0,13-6.9,22.7-15.3,21.8c-8.2-0.9-14.7-11.8-14.7-24.3c0-12.5,6.5-22.3,14.7-21.9
	C1056.7,440.7,1063.6,451.6,1063.6,464.6z"/>
<path class="st9" d="M1062.8,155.2c0,12.3-6.5,24-14.5,26.1c-7.8,2.1-14-5.9-14-17.8c0-11.9,6.2-23.5,14-25.9
	C1056.2,135,1062.8,142.9,1062.8,155.2z"/>
<polyline class="st10" points="1041.7,316.4 1045.9,322.4 1055,303.4 "/>
<line class="st10" x1="1044" y1="167.7" x2="1052.7" y2="150.9"/>
<line class="st10" x1="1043" y1="152.7" x2="1053.8" y2="166.2"/>
<line class="st10" x1="1043.5" y1="471" x2="1053.7" y2="455.6"/>
<line class="st10" x1="1043.5" y1="455.6" x2="1053.1" y2="472.1"/>
<path class="st7" d="M1027.1,357.4l-56.6,2.8c-2.5,0.1-4.7-1.9-4.7-4.4v-0.2c0-2.4,1.8-4.3,4.2-4.4l56.6-3.5
	c2.6-0.2,4.7,1.9,4.7,4.4v0.9C1031.3,355.3,1029.4,357.2,1027.1,357.4z"/>
<path class="st7" d="M1026.9,377.8l-56.6,1.3c-2.5,0.1-4.5-2-4.5-4.4v0c0-2.4,1.9-4.4,4.3-4.4l56.6-2c2.5-0.1,4.6,1.9,4.6,4.4v0.7
	C1031.3,375.7,1029.4,377.7,1026.9,377.8z"/>
<path class="st7" d="M1020.6,505.2l-51.1-7.1c-2.1-0.3-3.6-2.1-3.6-4.1l0,0c0-2.5,2.2-4.5,4.7-4.1l51.1,6.6c2.1,0.3,3.6,2,3.6,4.1
	v0.6C1025.3,503.6,1023.1,505.5,1020.6,505.2z"/>
<path class="st7" d="M1020.7,523.9l-51.5-8.4c-1.9-0.3-3.3-2-3.3-3.9l0,0c0-2.4,2.1-4.3,4.5-3.9l51.5,7.9c1.9,0.3,3.3,1.9,3.3,3.9
	v0.6C1025.3,522.5,1023.1,524.3,1020.7,523.9z"/>
<path class="st7" d="M1024.6,210.2l-53,12.5c-2.7,0.6-5.3-1.4-5.3-4.2v0c0-2,1.4-3.7,3.3-4.2l53.6-13.3c2.7-0.7,5.4,1.4,5.4,4.2v0
	C1028.5,207.5,1026.9,209.6,1024.6,210.2z"/>
<path class="st7" d="M1025.1,230.9l-53.9,11.3c-2.5,0.5-4.9-1.4-4.9-4v0c0-1.9,1.3-3.6,3.2-4l53.8-11.9c2.7-0.6,5.3,1.5,5.3,4.3v0
	C1028.5,228.7,1027.1,230.5,1025.1,230.9z"/>
<path class="st3" d="M201.8,213.7H710c-1.4-18-16.4-32.2-34.8-32.2H236.6C218.3,181.6,203.2,195.7,201.8,213.7z"/>
<path class="st7" d="M652.9,203.7H333.7c-3.3,0-6.1-2.7-6.1-6.1v0c0-3.3,2.7-6.1,6.1-6.1h319.2c3.3,0,6.1,2.7,6.1,6.1v0
	C659,201,656.3,203.7,652.9,203.7z"/>
<circle class="st6" cx="243.6" cy="197.7" r="5.5"/>
<circle class="st5" cx="263.6" cy="197.7" r="5.5"/>
<circle class="st4" cx="283.6" cy="197.7" r="5.5"/>
<path class="st11" d="M262,334.2h387.8c13.1,0,23.7-10.6,23.7-23.7v-41.1c0-13.1-10.6-23.7-23.7-23.7H262
	c-13.1,0-23.7,10.6-23.7,23.7v41.1C238.3,323.6,248.9,334.2,262,334.2z"/>
<circle class="st12" cx="296.3" cy="290" r="26.7"/>
<path class="st13" d="M604.8,275.5H359.3c-3.1,0-5.5-2.5-5.5-5.5l0,0c0-3.1,2.5-5.5,5.5-5.5h245.4c3.1,0,5.5,2.5,5.5,5.5l0,0
	C610.3,273.1,607.8,275.5,604.8,275.5z"/>
<path class="st13" d="M604.8,295.5H359.3c-3.1,0-5.5-2.5-5.5-5.5l0,0c0-3.1,2.5-5.5,5.5-5.5h245.4c3.1,0,5.5,2.5,5.5,5.5l0,0
	C610.3,293.1,607.8,295.5,604.8,295.5z"/>
<path class="st13" d="M504.8,315.5H359.3c-3.1,0-5.5-2.5-5.5-5.5l0,0c0-3.1,2.5-5.5,5.5-5.5h145.4c3.1,0,5.5,2.5,5.5,5.5l0,0
	C510.3,313.1,507.8,315.5,504.8,315.5z"/>
<g>
	<path class="st2" d="M260,447.4h160.3c12,0,21.7-9.7,21.7-21.7v-45c0-12-9.7-21.7-21.7-21.7H260c-12,0-21.7,9.7-21.7,21.7v45
		C238.3,437.6,248,447.4,260,447.4z"/>
	<path class="st2" d="M491.5,447.4h160.3c12,0,21.7-9.7,21.7-21.7v-45c0-12-9.7-21.7-21.7-21.7H491.5c-12,0-21.7,9.7-21.7,21.7v45
		C469.7,437.6,479.5,447.4,491.5,447.4z"/>
	<circle class="st2" cx="296.3" cy="401.4" r="26.7"/>
	<circle class="st2" cx="527.8" cy="401.4" r="26.7"/>
	<path class="st2" d="M414.9,385.8h-55.6c-3.1,0-5.5-2.5-5.5-5.5v0c0-3.1,2.5-5.5,5.5-5.5h55.6c3.1,0,5.5,2.5,5.5,5.5v0
		C420.5,383.3,418,385.8,414.9,385.8z"/>
	<path class="st2" d="M414.9,406.9h-55.6c-3.1,0-5.5-2.5-5.5-5.5l0,0c0-3.1,2.5-5.5,5.5-5.5h55.6c3.1,0,5.5,2.5,5.5,5.5l0,0
		C420.5,404.4,418,406.9,414.9,406.9z"/>
	<path class="st2" d="M414.9,428.1h-55.6c-3.1,0-5.5-2.5-5.5-5.5l0,0c0-3.1,2.5-5.5,5.5-5.5h55.6c3.1,0,5.5,2.5,5.5,5.5l0,0
		C420.5,425.6,418,428.1,414.9,428.1z"/>
	<path class="st2" d="M646.4,385.8h-55.6c-3.1,0-5.5-2.5-5.5-5.5v0c0-3.1,2.5-5.5,5.5-5.5h55.6c3.1,0,5.5,2.5,5.5,5.5v0
		C651.9,383.3,649.4,385.8,646.4,385.8z"/>
	<path class="st2" d="M646.4,406.9h-55.6c-3.1,0-5.5-2.5-5.5-5.5l0,0c0-3.1,2.5-5.5,5.5-5.5h55.6c3.1,0,5.5,2.5,5.5,5.5l0,0
		C651.9,404.4,649.4,406.9,646.4,406.9z"/>
	<path class="st2" d="M646.4,428.1h-55.6c-3.1,0-5.5-2.5-5.5-5.5l0,0c0-3.1,2.5-5.5,5.5-5.5h55.6c3.1,0,5.5,2.5,5.5,5.5l0,0
		C651.9,425.6,649.4,428.1,646.4,428.1z"/>
</g>
<circle class="st2" cx="527.8" cy="515" r="26.7"/>
<path class="st2" d="M646.4,499.4h-55.6c-3.1,0-5.5-2.5-5.5-5.5l0,0c0-3.1,2.5-5.5,5.5-5.5h55.6c3.1,0,5.5,2.5,5.5,5.5l0,0
	C651.9,496.9,649.4,499.4,646.4,499.4z"/>
<path class="st2" d="M646.4,520.5h-55.6c-3.1,0-5.5-2.5-5.5-5.5l0,0c0-3.1,2.5-5.5,5.5-5.5h55.6c3.1,0,5.5,2.5,5.5,5.5l0,0
	C651.9,518.1,649.4,520.5,646.4,520.5z"/>
<path class="st2" d="M646.4,541.7h-55.6c-3.1,0-5.5-2.5-5.5-5.5v0c0-3.1,2.5-5.5,5.5-5.5h55.6c3.1,0,5.5,2.5,5.5,5.5v0
	C651.9,539.2,649.4,541.7,646.4,541.7z"/>
<path class="st14" d="M754.3,515.1l66.1,15.3c10.3,2.4,20.2-5.5,20.2-16V260.2c0-10.8-10.2-18.7-20.6-15.9l-66.1,17.2
	c-7.3,1.9-12.3,8.4-12.3,15.9V499C741.6,506.7,746.9,513.4,754.3,515.1z"/>
<path class="st15" d="M824.1,421.9l-68.6-3.1c-3.3-0.1-5.9-2.9-5.9-6.2v0c0-3.5,2.8-6.2,6.3-6.2l68.6,1.4c3.8,0.1,6.8,3.2,6.8,7v0
	C831.4,418.9,828.1,422.1,824.1,421.9z"/>
<path class="st15" d="M824.4,444.6l-69.4-5.8c-3-0.3-5.3-2.8-5.3-5.8l0,0c0-3.4,2.8-6,6.2-5.8l69.5,4.5c3.4,0.2,6,3,6,6.4v0
	C831.4,442,828.2,444.9,824.4,444.6z"/>
<path class="st15" d="M807.6,491.3l-44.5-7.3c-2.8-0.5-4.8-2.9-4.8-5.7v0c0-3.5,3.1-6.2,6.6-5.7l44.5,6.5c2.8,0.4,4.9,2.9,4.9,5.7
	v0.8C814.3,489.2,811.1,491.9,807.6,491.3z"/>
<path class="st12" d="M804.8,327.9c0,27.8-10.1,50.7-22,51c-11.4,0.4-20.4-20.2-20.4-46s8.9-48.4,20.4-50.8
	C794.7,279.6,804.8,300.1,804.8,327.9z"/>
<path class="st12" d="M619.3,282.8c-0.1-1-0.2-1.9-0.2-2.9c0-10.6,7.7-19.4,17.8-21c1.7-11.7,11.7-20.7,23.9-20.7
	c8.8,0,16.6,4.7,20.8,11.8c2.3-1.8,5.1-2.9,8.3-2.9c1.6,0,3.2,0.3,4.7,0.9c0-0.3,0-0.5,0-0.8c0-21.2,17.2-38.4,38.4-38.4
	c19.1,0,34.9,13.9,37.9,32.2c17,1.1,30.4,15.2,30.4,32.5c0,3.3-0.5,6.5-1.4,9.4H619.3z"/>
<path class="st12" d="M1187.3,74.1c0.1-1,0.2-1.9,0.2-2.9c0-10.6-7.7-19.4-17.8-21c-1.7-11.7-11.7-20.7-23.9-20.7
	c-8.8,0-16.6,4.7-20.8,11.8c-2.3-1.8-5.1-2.9-8.3-2.9c-1.6,0-3.2,0.3-4.7,0.9c0-0.3,0-0.5,0-0.8c0-21.2-17.2-38.4-38.4-38.4
	c-19.1,0-34.9,13.9-37.9,32.2c-17,1.1-30.4,15.2-30.4,32.5c0,3.3,0.5,6.5,1.4,9.4H1187.3z"/>
<path class="st0" d="M1144.8,598.2c1.8,2.6,4.3,4.4,7.3,5.3l115.3,35.6c3.7,1,7.6,0.3,10.8-1.9l0.2-0.1c3.6-2.5,5.7-6.5,5.7-10.9
	V442.7c0-6.9-5.1-12.7-11.9-13.7l-114-8.8c-8.3-1.2-15.8,5.3-15.8,13.7v156.5C1142.4,593.2,1143.3,595.9,1144.8,598.2L1144.8,598.2z
	"/>
<path class="st9" d="M1294.2,436.4c0,10.8-5.8,19-12.8,18.2c-6.8-0.8-12.3-9.8-12.3-20.3c0-10.5,5.4-18.6,12.3-18.3
	C1288.4,416.5,1294.2,425.6,1294.2,436.4z"/>
<line class="st10" x1="1277.4" y1="441.8" x2="1285.9" y2="428.9"/>
<line class="st10" x1="1277.4" y1="428.9" x2="1285.4" y2="442.7"/>
<path class="st2" d="M1170.5,589.2l84.8,24.1c3.2,0.7,6.6-0.5,8.5-3.1l0,0c1.1-1.5,1.7-3.2,1.7-5.1V460.8c0-5.3-3.9-9.7-9.2-10.4
	l-83.8-10.7c-6.3-0.8-11.8,4.1-11.8,10.4v126.9c0,2.6,0.8,5.2,2.4,7.3l0,0C1165,586.9,1167.6,588.6,1170.5,589.2z"/>
<path class="st7" d="M1194.9,473.2c0,10.8-5.8,19-12.8,18.2c-6.8-0.8-12.3-9.8-12.3-20.3c0-10.5,5.4-18.6,12.3-18.3
	C1189.1,453.2,1194.9,462.3,1194.9,473.2z"/>
<line class="st16" x1="1367.7" y1="508.6" x2="1367.7" y2="497"/>
<circle class="st11" cx="1367.7" cy="497" r="4.6"/>
<path class="st17" d="M1358.6,482c2.1-2.8,5.5-4.5,9.2-4.5c3.6,0,6.9,1.7,9,4.2"/>
<path class="st17" d="M1362.3,486.8c1.3-1.6,3.2-2.7,5.4-2.7c2.1,0,4,1,5.3,2.5"/>
<circle class="st18" cx="1367.7" cy="532.3" r="25.7"/>
<path class="st11" d="M1358.8,508.2c-0.6,0.2-1.2,0.5-1.7,0.7c9.4,3.6,16.1,12.7,16.1,23.4c0,10.7-6.7,19.8-16.1,23.4
	c0.6,0.3,1.1,0.5,1.7,0.7c9.2-4.1,15.7-13.4,15.7-24.1C1374.4,521.6,1368,512.3,1358.8,508.2z"/>
<path class="st19" d="M1347.4,516.5c-3.4,4.4-5.4,9.8-5.4,15.8s2,11.4,5.4,15.8c7.3-1.5,12.8-8,12.8-15.8
	C1360.3,524.5,1354.8,518,1347.4,516.5z"/>
<polygon class="st12" points="1349,532.6 1193.2,472.8 1193.2,599.2 "/>
<path class="st0" d="M1153.2,341.8l115.1-0.8c3.2,0,6.2-1,8.8-2.8l0,0c4.3-2.9,6.9-7.8,6.9-13V131.4c0-5.7-5.8-9.6-11.1-7.4
	l-125.7,52.4c-3,1.2-4.9,4.1-4.9,7.4V331c0,2.2,0.7,4.3,1.9,6.1l0,0C1146.3,340.1,1149.7,341.8,1153.2,341.8z"/>
<path class="st8" d="M1291.1,131.4c0,11.7-6.3,21.7-13.8,22.3c-7.4,0.6-13.3-8.2-13.3-19.5s5.9-21.3,13.3-22.3
	C1284.9,111,1291.1,119.7,1291.1,131.4z"/>
<polyline class="st10" points="1271.3,137.4 1275.2,142.9 1283.4,125.7 "/>
<path class="st2" d="M1168.9,249.5l87.5-25.5c5.5-1.5,9.3-6.5,9.3-12.3v-52.1c0-4.2-4.3-7.1-8.2-5.5l-93,37.7
	c-2.2,0.9-3.6,3.1-3.6,5.5v44.1c0,1.6,0.5,3.2,1.4,4.5v0C1163.7,248.2,1166.2,249.5,1168.9,249.5z"/>
<path class="st7" d="M1193.2,213.6c0,11.4-5.4,21.4-11.8,22.3c-6.3,0.9-11.3-7.2-11.3-18s5-20.8,11.3-22.2
	C1187.9,194.2,1193.2,202.2,1193.2,213.6z"/>
<path class="st2" d="M1255.5,321.9c5.7-0.3,10.2-5,10.2-10.7V255c0-3.3-1.7-6.4-4.4-8.2v0c-2.4-1.6-5.4-2.1-8.1-1.3L1168,269
	c-2.2,0.6-4.2,2-5.5,4l0,0c-1.1,1.6-1.6,3.5-1.6,5.4V315c0,6,5.1,10.8,11.2,10.3L1255.5,321.9z"/>
<path class="st7" d="M1193.2,292.5c0,11.4-5.4,21.4-11.8,22.3c-6.3,0.9-11.3-7.2-11.3-18c0-10.9,5-20.8,11.3-22.2
	C1187.9,273.1,1193.2,281.1,1193.2,292.5z"/>
<line class="st16" x1="1367.7" y1="217.6" x2="1367.7" y2="205.9"/>
<circle class="st11" cx="1367.7" cy="205.9" r="4.6"/>
<path class="st17" d="M1358.6,190.9c2.1-2.8,5.5-4.5,9.2-4.5c3.6,0,6.9,1.7,9,4.2"/>
<path class="st17" d="M1362.3,195.8c1.3-1.6,3.2-2.7,5.4-2.7c2.1,0,4,1,5.3,2.5"/>
<circle class="st18" cx="1367.7" cy="241.3" r="25.7"/>
<path class="st11" d="M1358.8,217.2c-0.6,0.2-1.2,0.5-1.7,0.7c9.4,3.6,16.1,12.7,16.1,23.4s-6.7,19.8-16.1,23.4
	c0.6,0.3,1.1,0.5,1.7,0.7c9.2-4.1,15.7-13.4,15.7-24.1S1368,221.3,1358.8,217.2z"/>
<path class="st19" d="M1347.4,225.5c-3.4,4.4-5.4,9.8-5.4,15.8s2,11.4,5.4,15.8c7.3-1.5,12.8-8,12.8-15.8S1354.8,227,1347.4,225.5z"
	/>
<polygon class="st12" points="1349,241.5 1193.2,181.8 1193.2,308.2 "/>
<g>
	<circle class="st11" cx="880.2" cy="549.3" r="4.5"/>
	<g>
		<g>
			<path class="st20" d="M915.1,530.5c2,3.7,0.6,8.2-3.1,10.2l-30.4,16.4c-3.7,2-8.2,0.6-10.2-3.1c-2-3.7-0.6-8.2,3.1-10.2
				l30.4-16.4C908.5,525.5,913.1,526.9,915.1,530.5z"/>
		</g>
		<path class="st21" d="M902,537.6c-2-3.7-0.6-8.2,3.1-10.2l-5,2.7c-3.7,2-5,6.5-3.1,10.2c2,3.7,6.5,5,10.2,3.1l5-2.7
			C908.5,542.6,904,541.3,902,537.6z"/>
		<path class="st21" d="M948.5,502.7c2.6,3.3,2,8-1.3,10.6l4.5-3.5c3.3-2.6,3.8-7.3,1.3-10.6c-2.6-3.3-7.3-3.8-10.6-1.3l-4.5,3.5
			C941.2,498.8,946,499.4,948.5,502.7z"/>
		<g>
			<path class="st20" d="M948.5,502.7c2.6,3.3,2,8-1.3,10.6l-34,26.7c-3.3,2.6-8,2-10.6-1.3c-2.6-3.3-2-8,1.3-10.6l34-26.7
				C941.2,498.9,946,499.4,948.5,502.7z"/>
		</g>

			<ellipse transform="matrix(0.1187 -0.9929 0.9929 0.1187 271.2096 1373.1475)" class="st11" cx="909.2" cy="533.8" rx="4.2" ry="4.2"/>
		<line class="st22" x1="909.2" y1="533.8" x2="948.5" y2="502.7"/>
		<g>
			<path class="st13" d="M956.7,499.1l-2.6,2.1c-1,0.8-2.6,0.7-3.4-0.3l0,0c-0.8-1-0.7-2.6,0.3-3.4l9.5-7.8c1.8-1.5,4.1-2.2,6.5-2
				l9.9,1c0.9,0.1,1.3,1.2,0.6,1.8l-1,0.9c-1.9,1.8-4.6,2.6-7.1,2.2l-1.7-0.2c-1.1-0.1-2.2,0.2-3,0.9l-2.8,2.5l2.4,0.6
				c1,0.3,1.4,1.4,0.8,2.3l0,0c-0.3,0.5-0.9,0.7-1.4,0.6C961.6,499.9,956.7,499.1,956.7,499.1z"/>
			<path class="st11" d="M961.9,491.3c1.4-1.1,3.1-1.6,4.9-1.4L977,491l-0.5,0.4c0,0-0.1,0.1-0.2,0.1l-9.7-1
				c-1.6-0.2-3.2,0.3-4.4,1.3l-5.9,4.9l9.1,2c0,0.2,0,0.4-0.1,0.6l-9.6-2.1l0,0l-4.8,4c-0.1-0.1-0.1-0.1-0.2-0.2
				c-0.1-0.1-0.1-0.2-0.2-0.3L961.9,491.3z"/>
		</g>
	</g>
	<polyline class="st23" points="867.3,609 873.5,643.9 867.3,669.5 	"/>
	<circle class="st11" cx="873.5" cy="643.5" r="6.9"/>
	<path class="st13" d="M866.6,669.4h10.8c2.7,0,4.9,2.2,4.9,4.9v32.5h5.6c2.9,0,5.2,2.3,5.2,5.2v9.1h-26.6c-2.7,0-4.8-2.2-4.8-4.8
		v-42C861.7,671.6,863.9,669.4,866.6,669.4z"/>
	<path class="st11" d="M860.1,669.4h7.1c2.7,0,4.9,2.2,4.9,4.9v32.5h3.3c2.9,0,5.2,2.3,5.2,5.2v9.1h-20.6c-2.7,0-4.8-2.2-4.8-4.8
		v-42C855.2,671.6,857.4,669.4,860.1,669.4z"/>
	<path class="st24" d="M855.2,679.7h2.7c2.6,0,4.8,2.1,4.8,4.8v23.8"/>
	<circle class="st13" cx="862.7" cy="708.3" r="3.3"/>
	<path class="st15" d="M855.2,715.9v0.4c0,2.7,2.2,4.8,4.8,4.8h20.6v-5.2H855.2z"/>
	<rect x="880.6" y="715.9" class="st14" width="12.5" height="5.2"/>
	<circle class="st11" cx="877.4" cy="687.9" r="2.3"/>
	<circle class="st11" cx="877.4" cy="695.5" r="2.3"/>
	<circle class="st11" cx="877.4" cy="680.3" r="2.3"/>
	<path class="st11" d="M803.2,606.6c0-5,4-9,9-9h-19.8c-5,0-9,4-9,9c0,5,4,9,9,9h19.8C807.2,615.6,803.2,611.5,803.2,606.6z"/>
	<polyline class="st23" points="795.2,613.3 795.2,643.9 780.9,669.5 	"/>
	<path class="st13" d="M868.8,615.6h-57.8c-4.4,0-7.9-3.5-7.9-7.9v-2.2c0-4.4,3.5-7.9,7.9-7.9h57.8c4.4,0,7.9,3.5,7.9,7.9v2.2
		C876.7,612,873.2,615.6,868.8,615.6z"/>
	<line class="st22" x1="803.2" y1="606.6" x2="837.8" y2="606.6"/>
	<circle class="st22" cx="841.2" cy="606.6" r="3.4"/>
	<line class="st22" x1="841.2" y1="609.9" x2="841.2" y2="615.6"/>
	<path class="st13" d="M846.5,518.3h-20.8c-7.7,0-13.9-6.2-13.9-13.9v0c0-7.7,6.2-13.9,13.9-13.9h20.8c7.7,0,13.9,6.2,13.9,13.9v0
		C860.4,512.1,854.2,518.3,846.5,518.3"/>
	<path class="st20" d="M858.4,512.1h-25.3c-3.7,0-6.6-3-6.6-6.6v-1.9c0-3.7,3-6.6,6.6-6.6h25.3c3.7,0,6.6,3,6.6,6.6v1.9
		C865,509.1,862.1,512.1,858.4,512.1z"/>
	<circle class="st11" cx="812" cy="504.5" r="4.8"/>
	<path class="st12" d="M858.7,507.2h-19.5c-1.3,0-2.4-1.1-2.4-2.4v-0.7c0-1.3,1.1-2.4,2.4-2.4h19.5c1.3,0,2.4,1.1,2.4,2.4v0.7
		C861,506.1,860,507.2,858.7,507.2z"/>
	<g>
		<rect x="828.2" y="581.4" class="st20" width="14.8" height="16.2"/>
		<rect x="823.2" y="581.4" class="st21" width="5" height="16.2"/>
	</g>
	<path class="st11" d="M795.2,541.9v-2.3c0-4.3,3.5-7.8,7.8-7.8h-20.7c-4.3,0-7.8,3.5-7.8,7.8v2.3c0,21.8,17.7,39.4,39.4,39.4h20.7
		c0,0,0,0,0,0C812.8,581.4,795.2,563.7,795.2,541.9z"/>
	<path class="st13" d="M855.5,581.4h-24.1c-20,0-36.2-16.2-36.2-36.2V539c0-3.9,3.2-7.1,7.1-7.1h82.3c3.9,0,7.1,3.2,7.1,7.1v6.2
		C891.7,565.2,875.5,581.4,855.5,581.4z"/>
	<circle class="st15" cx="843.4" cy="551.8" r="6.6"/>
	<path class="st11" d="M859.5,541.6v-9.7h-0.6V548c0,8.5-6.9,15.5-15.5,15.5c-8.5,0-15.5-6.9-15.5-15.5v-16.1h-0.6v9.7h-32.2v0.6
		h32.2v5.7c0,8.8,7.1,15.9,15.8,16.1v17.3h0.6v-17.3c8.7-0.2,15.8-7.3,15.8-16.1v-5.7h32.2v-0.6H859.5z"/>
	<circle class="st14" cx="843.4" cy="551.8" r="4.3"/>
	<line class="st22" x1="841.2" y1="597.5" x2="841.2" y2="603.2"/>
	<line class="st22" x1="844.6" y1="606.6" x2="876.7" y2="606.6"/>
	<circle class="st11" cx="795.2" cy="643.5" r="6.9"/>
	<path class="st13" d="M783,663.2l9.9,4.4c2.5,1.1,3.6,4,2.5,6.5l-13.2,29.7l5.2,2.3c2.6,1.2,3.8,4.2,2.6,6.8l-3.7,8.4l-24.3-10.8
		c-2.4-1.1-3.5-3.9-2.4-6.4l17.1-38.4C777.6,663.2,780.5,662.1,783,663.2z"/>
	<path class="st11" d="M777.1,660.6l6.5,2.9c2.5,1.1,3.6,4,2.5,6.5l-13.2,29.7l3,1.4c2.6,1.2,3.8,4.2,2.6,6.8l-3.7,8.4l-18.8-8.4
		c-2.4-1.1-3.5-3.9-2.4-6.4l17.1-38.4C771.7,660.6,774.6,659.5,777.1,660.6z"/>
	<path class="st24" d="M768.4,668l2.5,1.1c2.4,1.1,3.5,3.9,2.4,6.3l-9.7,21.7"/>

		<ellipse transform="matrix(0.4072 -0.9134 0.9134 0.4072 -184.0138 1110.7511)" class="st13" cx="763.6" cy="697.1" rx="3.3" ry="3.3"/>
	<path class="st15" d="M753.7,701.1l-0.2,0.3c-1.1,2.4,0,5.3,2.4,6.4l18.8,8.4l2.1-4.8L753.7,701.1z"/>

		<rect x="778.9" y="710.1" transform="matrix(0.4072 -0.9134 0.9134 0.4072 -190.9342 1138.4735)" class="st14" width="5.2" height="12.5"/>

		<ellipse transform="matrix(0.4072 -0.9134 0.9134 0.4072 -159.6494 1123.1178)" class="st11" cx="785.3" cy="684.5" rx="2.3" ry="2.3"/>

		<ellipse transform="matrix(0.4072 -0.9134 0.9134 0.4072 -167.8497 1124.4108)" class="st11" cx="782.2" cy="691.5" rx="2.3" ry="2.3"/>

		<ellipse transform="matrix(0.4072 -0.9134 0.9134 0.4072 -151.4491 1121.8248)" class="st11" cx="788.4" cy="677.6" rx="2.3" ry="2.3"/>
	<g>
		<path class="st20" d="M785.1,590.7c-4.2,0-7.5-3.4-7.5-7.5v-34.5c0-4.2,3.4-7.5,7.5-7.5c4.2,0,7.5,3.4,7.5,7.5v34.5
			C792.6,587.3,789.2,590.7,785.1,590.7z"/>
	</g>
	<circle class="st11" cx="785.1" cy="549.3" r="4.5"/>
	<path class="st22" d="M785.1,549.3v12.3c0,2.9,2.4,5.3,5.3,5.3h2.2"/>
	<path class="st21" d="M785.1,575.9c4.2,0,7.5,3.4,7.5,7.5v-5.7c0-4.2-3.4-7.5-7.5-7.5c-4.2,0-7.5,3.4-7.5,7.5v5.7
		C777.5,579.2,780.9,575.9,785.1,575.9z"/>
	<path class="st21" d="M820.9,619.1c-2.9,2.9-7.7,2.9-10.7,0l4,4c2.9,2.9,7.7,2.9,10.7,0c2.9-2.9,2.9-7.7,0-10.7l-4-4
		C823.8,611.4,823.8,616.2,820.9,619.1z"/>
	<g>
		<path class="st20" d="M820.9,619.1c-2.9,2.9-7.7,2.9-10.7,0l-30.5-30.6c-2.9-2.9-2.9-7.7,0-10.7c2.9-2.9,7.7-2.9,10.7,0l30.5,30.6
			C823.8,611.4,823.8,616.2,820.9,619.1z"/>
	</g>
	<circle class="st11" cx="785.3" cy="583.7" r="4.2"/>
	<line class="st22" x1="785.3" y1="583.7" x2="820.9" y2="619.1"/>
	<g>
		<path class="st13" d="M828.5,623l-2.4-2.3c-1-0.9-2.5-0.9-3.4,0l0,0c-0.9,1-0.9,2.5,0,3.4l8.8,8.6c1.7,1.6,3.9,2.6,6.3,2.5
			l9.9-0.1c0.9,0,1.4-1.1,0.7-1.7l-0.9-1c-1.8-1.9-4.3-3-6.9-2.8l-1.7,0.1c-1.1,0.1-2.2-0.4-2.9-1.2l-2.6-2.7l2.5-0.4
			c1-0.2,1.5-1.3,1-2.2l0,0c-0.3-0.5-0.8-0.8-1.4-0.7C833.5,622.6,828.5,623,828.5,623z"/>
		<path class="st11" d="M833.1,631.2c1.3,1.2,3,1.9,4.7,1.8l10.3-0.2l-0.4-0.5c0,0-0.1-0.1-0.1-0.1l-9.7,0.2
			c-1.6,0.1-3.2-0.6-4.3-1.7l-5.5-5.4l9.2-1.2c0-0.2,0-0.4,0-0.6l-9.7,1.3l0,0l-4.5-4.4c-0.1,0.1-0.2,0.1-0.2,0.2
			c-0.1,0.1-0.1,0.2-0.2,0.2L833.1,631.2z"/>
	</g>
</g>
<line class="st25" x1="765" y1="721.7" x2="903.8" y2="721.7"/>
<polygon class="st12" points="853.9,505 1040.4,620 1040.4,407.9 "/>
<g>
	<rect x="669.6" y="526" class="st26" width="23.7" height="56.5"/>
	<g>
		<polygon class="st12" points="674.8,452 674.8,452 674.8,452.1 		"/>
	</g>
	<path class="st27" d="M742.5,416.7l4.2-7.3c0.5-1,1.6-1.5,2.7-1.5l0,0c2.2,0,3.6,2.2,2.7,4.2l-2,4.6"/>
	<path class="st27" d="M686.8,431.1v6.3c0,0.8-0.7,1.5-1.5,1.5h-0.1c-0.8,0-1.5-0.7-1.5-1.5c0-1.3-1-2.3-2.3-2.3h-1.1
		c-0.9,0-1.6,0.7-1.6,1.6v2.1c0,1.6-0.6,3.2-1.8,4.3l-1.3,1.3v7.7h0c0,2.7,2.2,4.9,4.9,4.9h2.2c2.7,0,4.9-2.2,4.9-4.9l-0.1-6.1h3.5
		c2.4,0,4.4-2,4.4-4.4v-10.5H686.8z"/>
	<polygon class="st28" points="687.6,446 683,446 687.7,452.1 	"/>
	<polygon class="st12" points="675.7,452 675.7,504.8 687.7,504.8 687.7,452.1 	"/>
	<polygon class="st29" points="681.7,452.1 675.7,458.2 675.7,452 	"/>
	<polygon class="st29" points="681.7,452.1 687.7,458.2 687.7,452 	"/>
	<path class="st30" d="M630.7,624.1h-20.8v-10.6c0-4.1,3.3-7.4,7.4-7.4h6.1c4.1,0,7.4,3.3,7.4,7.4V624.1z"/>
	<path class="st11" d="M635.4,653.5h-37.6c-4.6,0-8.3-3.7-8.3-8.3v-22c0-4.6,3.7-8.3,8.3-8.3h37.6c4.6,0,8.3,3.7,8.3,8.3v22
		C643.7,649.8,640,653.5,635.4,653.5z"/>
	<path class="st13" d="M642.7,653.5h-37.6c-4.6,0-8.3-3.7-8.3-8.3v-22c0-4.6,3.7-8.3,8.3-8.3h37.6c4.6,0,8.3,3.7,8.3,8.3v22
		C650.9,649.8,647.2,653.5,642.7,653.5z"/>
	<path class="st11" d="M693.7,423.5l-1.5,1.1c-1-1.4-2.9-2-4.5-1.2l-2,0.9c-1.1-1.3-3-1.8-4.6-1.1l-2.9,1.3
		c-1.5,0.6-2.4,2.1-2.4,3.7v16.2l1.3-1.3c1.2-1.2,1.8-2.7,1.8-4.3v-2.1c0-0.9,0.7-1.6,1.6-1.6h1.2c1.3,0,2.2,1.1,2.2,2.4
		c0,0.8,0.7,1.4,1.5,1.4h0.1c0.8,0,1.5-0.7,1.5-1.5v-4.7c0-0.8,0.7-1.5,1.5-1.5h7.1l1.4-5.4C697.3,423.8,695.2,422.4,693.7,423.5z"
		/>
	<g>
		<path class="st31" d="M646.4,640.3"/>
		<path class="st31" d="M712.5,568.3l-5.6-63.5h-49.4l1.6,66.7c0.3,5.3-0.1,10.6-1.2,15.8l-11.6,53h11l17.3-55.2
			c1-3.7,1.8-7.5,2.2-11.4l6.4-39.3c0.3-2.8,4.2-2.9,4.7-0.1l6.6,35.3c1.2,6.5,1.4,13.2,0.6,19.8l-6.1,54.9h10.4l12.1-53.8
			C712.8,583.2,713.3,575.7,712.5,568.3z"/>
	</g>
	<path class="st32" d="M669.5,651.1c-0.7-1.7-2.1-3.1-3.9-3.7l-9.5-3.1l1.2-4h-11l-1.9,9.6c-0.4,1.9,1.1,3.6,3,3.6h20.5
		C669.1,653.5,670,652.3,669.5,651.1z"/>
	<g>
		<path class="st33" d="M666.9,452c-3.4,0-6.8,0.6-9.9,1.8v29.4l0.5,92.1c0.1,4,3.3,7.2,7.3,7.2h10.9V452H666.9z"/>
	</g>
	<g>
		<path class="st33" d="M687.9,455C687.9,455,687.9,455,687.9,455C687.9,455,687.9,455,687.9,455z"/>
		<path class="st33" d="M742.5,416.7l-22,35.4l-32.9,0c0,0.1,0,130.5,0,130.5h12c4,0,7.3-3.3,7.3-7.3V468.7l13.5-3.9
			c5.2-1.5,9.5-5.2,11.8-10.1l17.8-38H742.5z"/>
		<path class="st33" d="M675.4,455C675.4,455,675.4,455,675.4,455C675.4,455,675.4,455,675.4,455z"/>
	</g>
	<path class="st33" d="M644,465.4l-0.2,0.3c-3.2,4.9-5.6,10.2-7.1,15.8c-1.5,5.3-2.2,10.9-2.1,16.4l0.8,36h7.6l3.2-44l10.8-17.9
		v-18.3C651.7,456.5,647.2,460.5,644,465.4z"/>
	<path class="st27" d="M642.9,534.1l-0.8,6.8c-0.2,1.2-1,2.3-2.2,2.7h0c-2.3,0.8-4.7-0.9-4.6-3.4l0-6.1H642.9z"/>
	<path class="st32" d="M712.9,651.1c-0.7-1.7-2.1-3.1-3.9-3.7l-9.8-3.1l0.9-4h-10.8l-1,8.4c-0.3,2.5,1.6,4.7,4.1,4.7h18.8
		C712.4,653.5,713.3,652.3,712.9,651.1z"/>
	<g>
		<path class="st11" d="M612.6,626.3L612.6,626.3c0.8,0,1.5,0.5,1.8,1.2l5.3,12c0.6,1.3-0.4,2.8-1.8,2.8l0,0c-0.8,0-1.5-0.5-1.8-1.2
			l-5.3-12C610.3,627.8,611.2,626.3,612.6,626.3z"/>
		<path class="st11" d="M621.2,626.3L621.2,626.3c0.8,0,1.5,0.5,1.8,1.2l5.3,12c0.6,1.3-0.4,2.8-1.8,2.8l0,0c-0.8,0-1.5-0.5-1.8-1.2
			l-5.3-12C618.9,627.8,619.8,626.3,621.2,626.3z"/>
		<path class="st11" d="M629.8,626.3L629.8,626.3c0.8,0,1.5,0.5,1.8,1.2l5.3,12c0.6,1.3-0.4,2.8-1.8,2.8l0,0c-0.8,0-1.5-0.5-1.8-1.2
			l-5.3-12C627.4,627.8,628.4,626.3,629.8,626.3z"/>
	</g>
	<line class="st25" x1="583" y1="653.7" x2="721.8" y2="653.7"/>
</g>
<g>
	<circle class="st11" cx="411.8" cy="549.6" r="4.5"/>
	<g>
		<g>
			<path class="st20" d="M415.3,587.4c-4.1,0.5-7.9-2.4-8.4-6.5l-4.3-34.3c-0.5-4.1,2.4-7.9,6.5-8.4c4.1-0.5,7.9,2.4,8.4,6.5
				l4.3,34.3C422.3,583.1,419.4,586.9,415.3,587.4z"/>
		</g>
		<path class="st21" d="M413.4,572.7c4.1-0.5,7.9,2.4,8.4,6.5l-0.7-5.7c-0.5-4.1-4.3-7.1-8.4-6.5c-4.1,0.5-7.1,4.3-6.5,8.4l0.7,5.7
			C406.4,576.9,409.3,573.2,413.4,572.7z"/>
		<path class="st21" d="M429.1,628.7c-4,1.2-8.2-1-9.4-5l1.7,5.5c1.2,4,5.4,6.2,9.4,5s6.2-5.4,5-9.4l-1.7-5.5
			C435.4,623.2,433.1,627.5,429.1,628.7z"/>
		<g>
			<path class="st20" d="M429.1,628.7c-4,1.2-8.2-1-9.4-5l-12.6-41.4c-1.2-4,1-8.2,5-9.4s8.2,1,9.4,5l12.6,41.4
				C435.3,623.2,433.1,627.5,429.1,628.7z"/>
		</g>

			<ellipse transform="matrix(0.4698 -0.8828 0.8828 0.4698 -292.9424 673.6642)" class="st11" cx="414.4" cy="580.7" rx="4.2" ry="4.2"/>
		<line class="st22" x1="414.4" y1="580.7" x2="429.1" y2="628.7"/>
		<g>
			<path class="st13" d="M429.5,637.6l-1-3.2c-0.4-1.3,0.3-2.6,1.5-3.1l0,0c1.3-0.4,2.6,0.3,3.1,1.5l3.9,11.7
				c0.7,2.2,0.6,4.7-0.5,6.7l-4.5,8.8c-0.4,0.8-1.6,0.7-1.9-0.1l-0.5-1.2c-0.9-2.4-0.7-5.2,0.5-7.5l0.8-1.5c0.5-1,0.6-2.1,0.3-3.1
				l-1.3-3.5l-1.5,2c-0.6,0.8-1.9,0.8-2.4-0.1l0,0c-0.3-0.5-0.3-1.1,0-1.6C427,641.9,429.5,637.6,429.5,637.6z"/>
			<path class="st11" d="M434.9,645.3c0.6,1.7,0.4,3.5-0.4,5.1l-4.7,9.2l-0.2-0.6c0-0.1,0-0.1-0.1-0.2l4.4-8.7
				c0.8-1.4,0.9-3.1,0.4-4.6l-2.4-7.3l-5.2,7.7c-0.2-0.1-0.4-0.2-0.5-0.3l5.4-8.2l0,0l-2-5.9c0.1,0,0.2-0.1,0.3-0.1
				c0.1,0,0.2,0,0.3-0.1L434.9,645.3z"/>
		</g>
	</g>
	<polyline class="st23" points="398.8,609.3 405,644.2 398.8,669.8 	"/>
	<circle class="st11" cx="405" cy="643.9" r="6.9"/>
	<path class="st13" d="M398.2,669.7H409c2.7,0,4.9,2.2,4.9,4.9v32.5h5.6c2.9,0,5.2,2.3,5.2,5.2v9.1h-26.6c-2.7,0-4.8-2.2-4.8-4.8
		v-42C393.3,671.9,395.5,669.7,398.2,669.7z"/>
	<path class="st11" d="M391.7,669.7h7.1c2.7,0,4.9,2.2,4.9,4.9v32.5h3.3c2.9,0,5.2,2.3,5.2,5.2v9.1h-20.6c-2.7,0-4.8-2.2-4.8-4.8
		v-42C386.8,671.9,389,669.7,391.7,669.7z"/>
	<path class="st24" d="M386.8,680.1h2.7c2.6,0,4.8,2.1,4.8,4.8v23.8"/>
	<circle class="st13" cx="394.3" cy="708.6" r="3.3"/>
	<path class="st15" d="M386.8,716.3v0.4c0,2.7,2.2,4.8,4.8,4.8h20.6v-5.2H386.8z"/>
	<circle class="st11" cx="409" cy="688.3" r="2.3"/>
	<circle class="st11" cx="409" cy="695.9" r="2.3"/>
	<circle class="st11" cx="409" cy="680.7" r="2.3"/>
	<path class="st11" d="M334.8,606.9c0-5,4-9,9-9h-19.8c-5,0-9,4-9,9c0,5,4,9,9,9h19.8C338.8,615.9,334.8,611.9,334.8,606.9z"/>
	<polyline class="st23" points="326.7,613.6 326.7,644.2 312.4,669.8 	"/>
	<path class="st13" d="M400.4,615.9h-57.8c-4.4,0-7.9-3.5-7.9-7.9v-2.2c0-4.4,3.5-7.9,7.9-7.9h57.8c4.4,0,7.9,3.5,7.9,7.9v2.2
		C408.3,612.4,404.8,615.9,400.4,615.9z"/>
	<line class="st22" x1="334.8" y1="606.9" x2="369.4" y2="606.9"/>
	<circle class="st22" cx="372.7" cy="606.9" r="3.4"/>
	<line class="st22" x1="372.7" y1="610.3" x2="372.7" y2="615.9"/>
	<path class="st13" d="M378,518.7h-20.8c-7.7,0-13.9-6.2-13.9-13.9v0c0-7.7,6.2-13.9,13.9-13.9H378c7.7,0,13.9,6.2,13.9,13.9v0
		C391.9,512.5,385.7,518.7,378,518.7"/>
	<path class="st20" d="M389.9,512.4h-25.3c-3.7,0-6.6-3-6.6-6.6v-1.9c0-3.7,3-6.6,6.6-6.6h25.3c3.7,0,6.6,3,6.6,6.6v1.9
		C396.6,509.4,393.6,512.4,389.9,512.4z"/>
	<circle class="st11" cx="343.5" cy="504.8" r="4.8"/>
	<path class="st12" d="M390.2,507.5h-19.5c-1.3,0-2.4-1.1-2.4-2.4v-0.7c0-1.3,1.1-2.4,2.4-2.4h19.5c1.3,0,2.4,1.1,2.4,2.4v0.7
		C392.6,506.5,391.5,507.5,390.2,507.5z"/>
	<g>
		<rect x="359.7" y="581.7" class="st20" width="14.8" height="16.2"/>
		<rect x="354.7" y="581.7" class="st21" width="5" height="16.2"/>
	</g>
	<path class="st11" d="M326.7,542.3V540c0-4.3,3.5-7.8,7.8-7.8h-20.7c-4.3,0-7.8,3.5-7.8,7.8v2.3c0,21.8,17.7,39.4,39.4,39.4h20.7
		c0,0,0,0,0,0C344.4,581.7,326.7,564.1,326.7,542.3z"/>
	<path class="st13" d="M387,581.7h-24.1c-20,0-36.2-16.2-36.2-36.2v-6.2c0-3.9,3.2-7.1,7.1-7.1h82.3c3.9,0,7.1,3.2,7.1,7.1v6.2
		C423.2,565.5,407,581.7,387,581.7z"/>
	<circle class="st15" cx="374.9" cy="552.2" r="6.6"/>
	<path class="st11" d="M391.1,542v-9.7h-0.6v16.1c0,8.5-6.9,15.5-15.5,15.5c-8.5,0-15.5-6.9-15.5-15.5v-16.1h-0.6v9.7h-32.2v0.6
		h32.2v5.7c0,8.8,7.1,15.9,15.8,16.1v17.3h0.6v-17.3c8.7-0.2,15.8-7.3,15.8-16.1v-5.7h32.2V542H391.1z"/>
	<circle class="st14" cx="374.9" cy="552.2" r="4.3"/>
	<line class="st22" x1="372.7" y1="597.9" x2="372.7" y2="603.6"/>
	<line class="st22" x1="376.1" y1="606.9" x2="408.3" y2="606.9"/>
	<circle class="st11" cx="326.7" cy="643.9" r="6.9"/>
	<path class="st13" d="M314.6,663.6l9.9,4.4c2.5,1.1,3.6,4,2.5,6.5l-13.2,29.7l5.2,2.3c2.6,1.2,3.8,4.2,2.6,6.8l-3.7,8.4l-24.3-10.8
		c-2.4-1.1-3.5-3.9-2.4-6.4l17.1-38.4C309.2,663.6,312.1,662.5,314.6,663.6z"/>
	<path class="st11" d="M308.6,660.9l6.5,2.9c2.5,1.1,3.6,4,2.5,6.5L304.4,700l3,1.4c2.6,1.2,3.8,4.2,2.6,6.8l-3.7,8.4l-18.8-8.4
		c-2.4-1.1-3.5-3.9-2.4-6.4l17.1-38.4C303.3,660.9,306.2,659.8,308.6,660.9z"/>
	<path class="st24" d="M300,668.4l2.5,1.1c2.4,1.1,3.5,3.9,2.4,6.3l-9.7,21.7"/>

		<ellipse transform="matrix(0.4072 -0.9134 0.9134 0.4072 -462.0618 683.1047)" class="st13" cx="295.2" cy="697.5" rx="3.3" ry="3.3"/>
	<path class="st15" d="M285.2,701.4l-0.2,0.3c-1.1,2.4,0,5.3,2.4,6.4l18.8,8.4l2.1-4.8L285.2,701.4z"/>

		<rect x="310.5" y="710.4" transform="matrix(0.4072 -0.9134 0.9134 0.4072 -468.9822 710.8272)" class="st14" width="5.2" height="12.5"/>

		<ellipse transform="matrix(0.4072 -0.9134 0.9134 0.4072 -437.6974 695.4714)" class="st11" cx="316.9" cy="684.9" rx="2.3" ry="2.3"/>

		<ellipse transform="matrix(0.4072 -0.9134 0.9134 0.4072 -445.8977 696.7644)" class="st11" cx="313.8" cy="691.9" rx="2.3" ry="2.3"/>

		<ellipse transform="matrix(0.4072 -0.9134 0.9134 0.4072 -429.4971 694.1784)" class="st11" cx="320" cy="677.9" rx="2.3" ry="2.3"/>
	<g>
		<path class="st9" d="M255.9,651.8h160.3c12,0,21.7-9.7,21.7-21.7v-45c0-12-9.7-21.7-21.7-21.7H255.9c-12,0-21.7,9.7-21.7,21.7v45
			C234.2,642.1,243.9,651.8,255.9,651.8z"/>
		<g>
			<polygon class="st12" points="349.2,600.1 349.2,595 323,595 323,600.1 317.6,600.1 317.6,615.5 323,615.5 323,625.7
				328.1,625.7 328.1,620.6 333.3,620.6 333.3,625.7 338.9,625.7 338.9,620.6 344,620.6 344,625.7 349.2,625.7 349.2,615.5
				354.5,615.5 354.5,600.1 			"/>
			<rect x="323" y="605.2" class="st9" width="10.3" height="5.1"/>
			<rect x="338.9" y="605.2" class="st9" width="10.3" height="5.1"/>
			<polygon class="st12" points="317.6,584.3 312.5,584.3 312.5,589.5 307.4,589.5 307.4,594.6 317.6,594.6 317.6,594.6
				317.6,594.6 			"/>
			<polygon class="st12" points="364.8,594.6 364.8,589.5 359.7,589.5 359.7,584.3 354.5,584.3 354.5,594.6 354.5,594.6
				354.5,594.6 			"/>
			<polygon class="st12" points="354.5,630.9 359.7,630.9 359.7,625.7 364.8,625.7 364.8,620.6 354.5,620.6 354.5,620.6
				354.5,620.6 			"/>
			<polygon class="st12" points="307.4,620.6 307.4,625.7 312.5,625.7 312.5,630.9 317.6,630.9 317.6,620.6 317.6,620.6
				317.6,620.6 			"/>
		</g>
	</g>
	<g>
		<path class="st21" d="M352.5,619.5c-2.9,2.9-7.7,2.9-10.7,0l4,4c2.9,2.9,7.7,2.9,10.7,0c2.9-2.9,2.9-7.7,0-10.7l-4-4
			C355.4,611.8,355.4,616.5,352.5,619.5z"/>
		<g>
			<path class="st20" d="M316.6,591.1c-4.2,0-7.5-3.4-7.5-7.5V549c0-4.2,3.4-7.5,7.5-7.5s7.5,3.4,7.5,7.5v34.5
				C324.1,587.7,320.8,591.1,316.6,591.1z"/>
		</g>
		<circle class="st11" cx="316.6" cy="549.6" r="4.5"/>
		<path class="st22" d="M316.6,549.6v12.3c0,2.9,2.4,5.3,5.3,5.3h2.2"/>
		<path class="st21" d="M316.6,576.2c4.2,0,7.5,3.4,7.5,7.5V578c0-4.2-3.4-7.5-7.5-7.5s-7.5,3.4-7.5,7.5v5.7
			C309.1,579.6,312.4,576.2,316.6,576.2z"/>
		<g>
			<path class="st20" d="M352.4,619.5c-2.9,2.9-7.7,2.9-10.7,0l-30.5-30.6c-2.9-2.9-2.9-7.7,0-10.7c2.9-2.9,7.7-2.9,10.7,0
				l30.5,30.6C355.4,611.8,355.4,616.5,352.4,619.5z"/>
		</g>
		<circle class="st11" cx="316.9" cy="584.1" r="4.2"/>
		<line class="st22" x1="316.9" y1="584.1" x2="352.4" y2="619.5"/>
		<g>
			<path class="st13" d="M360.1,623.4l-2.4-2.3c-1-0.9-2.5-0.9-3.4,0l0,0c-0.9,1-0.9,2.5,0,3.4l8.8,8.6c1.7,1.6,3.9,2.6,6.3,2.5
				l9.9-0.1c0.9,0,1.4-1.1,0.7-1.7l-0.9-1c-1.8-1.9-4.3-3-6.9-2.8l-1.7,0.1c-1.1,0.1-2.2-0.4-2.9-1.2l-2.6-2.7l2.5-0.4
				c1-0.2,1.5-1.3,1-2.2l0,0c-0.3-0.5-0.8-0.8-1.4-0.7C365.1,623,360.1,623.4,360.1,623.4z"/>
			<path class="st11" d="M364.6,631.6c1.3,1.2,3,1.9,4.7,1.8l10.3-0.2l-0.4-0.5c0,0-0.1-0.1-0.1-0.1l-9.7,0.2
				c-1.6,0.1-3.2-0.6-4.3-1.7l-5.5-5.4l9.2-1.2c0-0.2,0-0.4,0-0.6l-9.7,1.3l0,0l-4.5-4.4c-0.1,0.1-0.2,0.1-0.2,0.2
				c-0.1,0.1-0.1,0.2-0.2,0.2L364.6,631.6z"/>
		</g>
	</g>
	<line class="st25" x1="293" y1="721.7" x2="431.8" y2="721.7"/>
</g>
<g>
	<path class="st3" d="M118.1,479.6c-91.4,0-106,12.6-106,12.6c-0.5-0.2-0.9-0.4-1.3-0.5c19.2,7.9,61.7,13.3,106.2,13.3
		c45.8,0,90.7-3.8,109.7-12.7C226.7,492.2,209.5,479.6,118.1,479.6z"/>
</g>
<path class="st13" d="M117,504.9c-60.4,0-117-9.8-117-22.6v18.6c0,3.5,1.9,6.8,5,8.4c10.4,5.6,39.7,16.3,111.4,16.3
	c71.4,0,102.5-9.4,114-14.4c3.5-1.5,5.7-5,5.7-8.8V482C236.2,498.4,177.4,504.9,117,504.9z"/>
<g>
	<path class="st13" d="M150.2,504.2l-54.5,0.3c7,0.3,14.1,0.4,21.3,0.4C128.3,504.9,139.4,504.7,150.2,504.2z"/>
	<path class="st13" d="M116.5,525.6c-48,0-77-4.8-94.1-9.6l26.5,116.4c1.1,4.8,4.3,8.8,8.7,11c9,4.5,27.4,10.7,60.6,10.7
		c34.9,0,56.7-7.1,67.2-11.8c4.7-2.1,8.2-6.3,9.3-11.4l25.6-116C203.8,519.8,172.5,525.6,116.5,525.6z"/>
</g>
<path class="st15" d="M236.2,482c0-16.3-77.3-22.3-119.2-22.3c-68.6,0-117,9.8-117,22.6c0,3.6,4.4,6.9,12.1,9.9
	c0,0,14.6-12.6,106-12.6c91.4,0,108.6,12.6,108.6,12.6C232.8,489.3,236.2,486,236.2,482z"/>
<path class="st11" d="M185.3,642.2c4.7-2.1,8.2-6.3,9.3-11.4l25.6-116c-13.9,4.2-38.5,9-79.9,10.3v12.4c0,15.3,6.1,30,16.9,40.9h0
	c10.8,10.8,16.9,25.5,16.9,40.9v27.1C178.7,645,182.4,643.5,185.3,642.2z"/>
<path class="st13" d="M152.1,492.4H84.1L76.8,480c-13.6-23-13.6-51.6-0.1-74.6l0.1-0.2c8.1-13.7,9-30.6,2.4-45.1l-0.1-0.3
	c-6.7-14.6-6.3-31.5,0.9-45.9l0,0c6.5-12.9,9.2-27.4,7.7-41.7l0-0.4c-1.9-18.1,12.3-33.8,30.5-33.8h0c18.2,0,32.3,15.7,30.5,33.8v0
	c-1.5,14.3,1.2,28.7,7.7,41.6l0.2,0.3c7.3,14.5,7.6,31.5,0.8,46.2l0,0c-6.8,14.6-5.9,31.6,2.3,45.4l0,0c13.6,23,13.6,51.6-0.1,74.6
	L152.1,492.4z"/>
<path class="st11" d="M117.2,376.1l1.9,1.9l43-43c-0.1-1.2-0.2-2.3-0.3-3.4L117.2,376.1z"/>
<path class="st11" d="M148.4,274.2l-31.3,31.3l1.9,1.9l29.2-29.2C148.3,276.8,148.4,275.5,148.4,274.2z"/>
<path class="st11" d="M156.7,399.8l-39.5,39.5l1.9,1.9l38.9-38.9C157.5,401.5,157.1,400.7,156.7,399.8z"/>
<path class="st11" d="M162.7,411.6l-45.6,45.6l1.9,1.9l44.9-44.9C163.6,413.3,163.1,412.5,162.7,411.6z"/>
<path class="st11" d="M119,338.5l-34.8-34.8c-0.3,0.9-0.7,1.8-1,2.7l33.9,33.9L119,338.5z"/>
<path class="st11" d="M119,404.9L82,367.9c0.4,1.6,0.7,3.1,1,4.7l34.2,34.2L119,404.9z"/>
<path class="st11" d="M119.4,238.1c-0.4,0-0.9-0.1-1.3-0.1h0c-0.4,0-0.9,0.1-1.3,0.1v254.3h2.6V238.1z"/>
<path class="st11" d="M165.6,497.5L165.6,497.5c0-4.4-3.6-7.9-7.9-7.9h-4.4c-2.5,0-4.8-1-6.5-2.7l-1.1-1.1
	c-3.5-3.5-8.3-5.5-13.3-5.5h0c-5,0-9.7,2-13.3,5.5l-0.6,0.6c-2,2-4.8,3.2-7.6,3.2h0c-2.9,0-5.6-1.1-7.6-3.2h0
	c-2.4-2.4-5.7-3.8-9.1-3.8h-1.2c-4.4,0-8.7,1.9-11.7,5.1l0,0c-2.1,2.2-4.9,3.7-7.9,4l-1.2,0.1c-2.8,0.3-4.9,2.7-4.9,5.6l0,0H165.6z"
	/>
</svg>
