<?xml version="1.0" encoding="UTF-8"?>
<svg width="123px" height="20px" viewBox="0 0 123 20" version="1.1" xmlns="http://www.w3.org/2000/svg" xmlns:xlink="http://www.w3.org/1999/xlink">
    <!-- Generator: Sketch 49.3 (51167) - http://www.bohemiancoding.com/sketch -->
    <title>logo</title>
    <desc>Created with Sketch.</desc>
    <defs></defs>
    <g id="Website" stroke="none" stroke-width="1" fill="none" fill-rule="evenodd">
        <g id="Homepage-Axur" transform="translate(-95.000000, -78.000000)" fill-rule="nonzero">
            <g id="Header" transform="translate(95.000000, 64.000000)">
                <g id="logo" transform="translate(0.000000, 14.000000)">
                    <path d="M122.873249,18.5679125 C122.954884,18.6620785 123,18.783864 123,18.9100608 C123,19.1939007 122.776419,19.4239985 122.500617,19.4239985 L118.467716,19.4239985 C118.325397,19.4239985 118.189838,19.3615049 118.095089,19.252214 L112.641119,12.9611951 L107.808737,12.9611951 L107.80846,18.9100608 C107.808448,19.1938919 107.58487,19.4239758 107.309077,19.4239758 L104.185687,19.4239906 C103.909888,19.4239906 103.686308,19.1938977 103.686304,18.9100608 L103.686013,0.522518235 C103.686013,0.522514603 103.686013,0.522510971 103.686013,0.522507339 C103.686015,0.238667384 103.909597,0.00857100112 104.185399,0.00857268592 L113.968436,0.00864334225 C118.998474,0.00864334225 122.248464,2.57181171 122.248464,6.53838355 C122.248464,7.76083078 121.855021,11.2262276 117.605225,12.4912194 L122.873249,18.5679125 Z M95.652179,11.1488506 L95.652179,0.527471398 C95.652179,0.243631441 95.8757604,0.0135336929 96.1515616,0.0135336929 L99.3143184,0.0135336929 C99.5901199,0.0135336929 99.813701,0.243631441 99.813701,0.527471398 L99.813701,11.1488506 C99.813701,16.5257811 95.9925915,20 89.9531133,20 C83.935275,20 80.1158301,16.6082967 80.1158301,11.1488506 L80.1158301,0.527471398 C80.1158301,0.243631441 80.3394115,0.0135336929 80.6152127,0.0135336929 L83.7779695,0.0135336929 C84.053771,0.0135336929 84.2773521,0.243631441 84.2773521,0.527471398 L84.2773521,11.1488506 C84.2773521,14.2230547 86.1886005,15.7171858 89.9531133,15.7171858 C93.6263501,15.7171858 95.652179,14.0520276 95.652179,11.1488506 Z M72.3125351,0.17343142 C72.4073227,0.0631483144 72.5435182,2.70467997e-17 72.6865841,0 L76.9089501,2.7261306e-15 C77.0308513,3.70591652e-15 77.1485431,0.045887483 77.2398433,0.129013988 C77.4464101,0.317087581 77.4657199,0.64188757 77.2829727,0.85447507 L69.5587978,9.8399084 L77.2090474,18.6970909 C77.2903053,18.7911684 77.3351907,18.9126642 77.3351907,19.0385368 C77.3351907,19.3223767 77.1116093,19.5524745 76.835808,19.5524745 L72.6039984,19.5524745 C72.4613631,19.5524745 72.3255349,19.4897044 72.2307687,19.3799941 L66.7758493,13.0648675 L61.324825,19.3798619 C61.2300557,19.4896518 61.0941765,19.5524745 60.951481,19.5524745 L56.7207439,19.5524745 C56.5984845,19.5524745 56.4804729,19.5063175 56.3890731,19.4227508 C56.1828869,19.2342351 56.1642344,18.9093945 56.347411,18.6971989 L63.9931782,9.84019393 L56.2446783,0.855082244 C56.1635816,0.761043145 56.1187953,0.639671414 56.1187953,0.513937705 C56.1187953,0.230097748 56.3423764,1.1933115e-15 56.6181779,1.14117095e-15 L60.8470129,9.50975788e-16 C60.9897969,9.23982321e-16 61.1257516,0.0629004451 61.2205256,0.172808218 L66.7758493,6.61523483 L72.3125351,0.17343142 Z M39.7468092,0.270495821 C39.8338909,0.103969715 40.0028002,0.000114208379 40.1865544,0.000114208379 L43.9046971,0.000114208379 C44.0885001,0.000114208379 44.2574457,0.104024246 44.3445064,0.270618836 L54.0252731,18.7952179 C54.0643778,18.8700469 54.0848461,18.9536862 54.0848461,19.038651 C54.0848461,19.3224909 53.861265,19.5525887 53.5854635,19.5525887 L49.9942492,19.5525887 C49.8104434,19.5525887 49.6414958,19.4486758 49.5544363,19.2820776 L47.3434279,15.0510654 L36.7440313,15.0507799 L34.5311137,19.2822214 C34.4440297,19.4487395 34.2751246,19.5525887 34.0913762,19.5525887 L30.4994794,19.5525887 C30.4168751,19.5525887 30.3355607,19.5315004 30.2628211,19.491213 C30.0199566,19.3567007 29.9290316,19.045038 30.0597344,18.7950949 L39.7468092,0.270495821 Z M38.6855201,11.3390076 L45.4033264,11.3392931 L42.0458104,4.91450075 L38.6855201,11.3390076 Z M107.820044,3.70739611 L107.808691,9.26343673 L113.813236,9.26343673 C115.744379,9.26343673 116.76942,8.7920208 117.289239,8.39639624 C117.866365,7.95705802 118.112623,7.40324652 118.112623,6.54469719 C118.112623,5.87924286 117.80257,3.70739611 113.813236,3.70739611 L107.820044,3.70739611 Z" id="axur-type" fill="#222222"></path>
                    <path d="M29.5550888,0.218735744 L20.0484482,18.3863759 C19.942571,18.5887124 20.0160011,18.8411372 20.2124589,18.9501827 C20.2713703,18.9828818 20.3372447,19 20.4041667,19 L24.0889352,19 C24.2375378,19 24.3741499,18.9159966 24.4446515,18.7812684 L33.9515495,0.613628215 C34.0574291,0.411293 33.9840019,0.158867281 33.7875451,0.0498195917 C33.7286328,0.0171189632 33.662757,8.49836506e-16 33.5958335,8.62498028e-16 L29.9108073,0 C29.762203,2.81150031e-17 29.6255895,0.0840052183 29.5550888,0.218735744 Z" id="barra-3" fill="#C92828"></path>
                    <path d="M19.5550888,0.218735744 L10.0484482,18.3863759 C9.94257096,18.5887124 10.0160011,18.8411372 10.2124589,18.9501827 C10.2713703,18.9828818 10.3372447,19 10.4041667,19 L14.0889352,19 C14.2375378,19 14.3741499,18.9159966 14.4446515,18.7812684 L23.9515496,0.613628215 C24.0574291,0.411293 23.9840018,0.158867281 23.7875451,0.0498195917 C23.7286327,0.0171189632 23.6627569,8.49836506e-16 23.5958333,8.62498028e-16 L19.9108072,0 C19.7622029,2.81150031e-17 19.6255897,0.0840052183 19.5550888,0.218735744 Z" id="barra-2" fill="#FF5824"></path>
                    <path d="M9.55508878,0.218735744 L0.0484482227,18.3863759 C-0.0574290332,18.5887124 0.0160010706,18.8411372 0.21245895,18.9501827 C0.271370307,18.9828818 0.337244655,19 0.404166681,19 L4.08893519,19 C4.23753783,19 4.3741499,18.9159966 4.44465148,18.7812684 L13.9515496,0.613628215 C14.0574291,0.411293 13.9840018,0.158867281 13.7875451,0.0498195917 C13.7286327,0.0171189632 13.6627569,8.49836506e-16 13.5958333,8.62498028e-16 L9.91080722,0 C9.76220294,2.81150031e-17 9.62558966,0.0840052183 9.55508878,0.218735744 Z" id="barra-1" fill="#FA9043"></path>
                </g>
            </g>
        </g>
    </g>
</svg>